<?xml version="1.0" encoding="utf-8"?>
<!-- Generator: Adobe Illustrator 21.0.0, SVG Export Plug-In . SVG Version: 6.00 Build 0)  -->
<svg version="1.1" id="Layer_1" xmlns="http://www.w3.org/2000/svg" xmlns:xlink="http://www.w3.org/1999/xlink" x="0px" y="0px"
	 viewBox="0 0 1728 1296" style="enable-background:new 0 0 1728 1296;" xml:space="preserve">
<style type="text/css">
	.st0{fill:url(#SVGID_1_);}
	.st1{fill:url(#SVGID_2_);}
	.st2{fill:url(#SVGID_3_);}
	.st3{opacity:0.6;fill:#020230;}
	.st4{fill:url(#SVGID_4_);}
	.st5{fill:url(#SVGID_5_);}
	.st6{fill:url(#SVGID_6_);}
	.st7{fill:url(#SVGID_7_);}
	.st8{fill:#FFFFFF;}
	.st9{opacity:0.4;}
	.st10{fill:#06033E;}
	.st11{fill:url(#SVGID_8_);}
	.st12{fill:url(#SVGID_9_);}
	.st13{opacity:0.4;fill:#06033E;}
	.st14{opacity:0.5;fill:#06033E;}
	.st15{fill:url(#SVGID_10_);}
	.st16{opacity:0.5;}
	.st17{fill:#E8975B;}
	.st18{fill:#F8359E;}
	.st19{fill:url(#SVGID_11_);}
	.st20{fill:url(#SVGID_12_);}
	.st21{fill:url(#SVGID_13_);}
	.st22{fill:url(#SVGID_14_);}
	.st23{fill:url(#SVGID_15_);}
	.st24{fill:url(#SVGID_16_);}
	.st25{fill:url(#SVGID_17_);}
	.st26{fill:#0C0A78;}
	.st27{fill:url(#SVGID_18_);}
	.st28{opacity:0.5;fill:#FFFFFF;}
</style>
<linearGradient id="SVGID_1_" gradientUnits="userSpaceOnUse" x1="1599.4841" y1="1074.8621" x2="1728" y2="1074.8621">
	<stop  offset="0" style="stop-color:#E39A65"/>
	<stop  offset="1" style="stop-color:#E95F8D"/>
</linearGradient>
<path class="st0" d="M1663.7,1113.1c-4.7,0-9.5-1.2-13.7-3.7l-46.3-27c-2.7-1.6-4.3-4.4-4.3-7.5c0-3.1,1.6-5.9,4.3-7.5l46.3-27
	c8.5-4.9,19-4.9,27.4,0l46.3,27c2.7,1.6,4.3,4.4,4.3,7.5c0,3.1-1.6,5.9-4.3,7.5l-46.3,27C1673.2,1111.9,1668.5,1113.1,1663.7,1113.1
	z M1663.7,1044c-3.5,0-7,0.9-10.1,2.7l-46.3,27c-0.5,0.3-0.6,0.8-0.6,1.1c0,0.3,0.1,0.8,0.6,1.1l46.3,27c0,0,0,0,0,0
	c6.2,3.6,13.9,3.6,20.1,0l46.3-27c0.5-0.3,0.6-0.8,0.6-1.1c0-0.3-0.1-0.8-0.6-1.1l-46.3-27C1670.7,1044.9,1667.2,1044,1663.7,1044z"
	/>
<linearGradient id="SVGID_2_" gradientUnits="userSpaceOnUse" x1="1423.5201" y1="896.5233" x2="1639.3929" y2="896.5233">
	<stop  offset="0" style="stop-color:#E39A65"/>
	<stop  offset="1" style="stop-color:#E95F8D"/>
</linearGradient>
<path class="st1" d="M1531.5,959.7c-7.7,0-15.4-2-22.3-6l-79.6-46.5c-3.8-2.2-6.1-6.2-6.1-10.6c0-4.4,2.3-8.4,6.1-10.6l79.6-46.5
	c13.7-8,30.8-8,44.6,0l79.6,46.5c3.8,2.2,6,6.2,6,10.6c0,4.4-2.3,8.4-6,10.6l-79.6,46.5C1546.9,957.7,1539.2,959.7,1531.5,959.7z
	 M1512.8,947.2c11.5,6.7,25.8,6.7,37.2,0l79.6-46.5c2.1-1.3,2.4-3.3,2.4-4.2c0-0.8-0.2-2.9-2.4-4.2l-79.6-46.5
	c-11.5-6.7-25.8-6.7-37.2,0l-79.6,46.5c-2.1,1.3-2.4,3.3-2.4,4.2c0,0.8,0.2,2.9,2.4,4.2L1512.8,947.2z"/>
<linearGradient id="SVGID_3_" gradientUnits="userSpaceOnUse" x1="0" y1="969.7545" x2="215.8725" y2="969.7545">
	<stop  offset="0" style="stop-color:#E39A65"/>
	<stop  offset="1" style="stop-color:#E95F8D"/>
</linearGradient>
<path class="st2" d="M107.9,1032.9c-7.7,0-15.4-2-22.3-6L6,980.4c-3.8-2.2-6-6.2-6-10.6c0-4.4,2.3-8.4,6-10.6l79.6-46.5
	c13.7-8,30.8-8,44.6,0l79.6,46.5c3.8,2.2,6.1,6.2,6.1,10.6c0,4.4-2.3,8.4-6.1,10.6l-79.6,46.5
	C123.4,1030.9,115.6,1032.9,107.9,1032.9z M107.9,914c-6.4,0-12.9,1.7-18.6,5L9.7,965.6c-2.1,1.3-2.4,3.3-2.4,4.2
	c0,0.8,0.2,2.9,2.4,4.2l79.6,46.5l0,0c11.5,6.7,25.8,6.7,37.2,0l79.6-46.5c2.2-1.3,2.4-3.3,2.4-4.2c0-0.8-0.2-2.9-2.4-4.2L126.6,919
	C120.8,915.7,114.4,914,107.9,914z"/>
<g>
	<path class="st3" d="M914,1235.9L344.8,903.2c-8.3-4.9-7.3-13.3,2.3-18.9l365.3-213.6c9.6-5.6,24.1-6.2,32.4-1.4l569.2,332.7
		c8.3,4.9,7.3,13.3-2.3,18.9l-365.3,213.6C936.8,1240.2,922.3,1240.8,914,1235.9z"/>
	<linearGradient id="SVGID_4_" gradientUnits="userSpaceOnUse" x1="251.3246" y1="955.7337" x2="1403.4622" y2="955.7337">
		<stop  offset="0" style="stop-color:#E39A65"/>
		<stop  offset="1" style="stop-color:#E95F8D"/>
	</linearGradient>
	<path class="st4" d="M927.1,1296c-6.7,0-13-1.4-17.9-4.3h0L259.6,912c-5.3-3.1-8.2-7.6-8.2-12.6c0-5.8,4-11.4,10.9-15.4L705,621.3
		c12.1-7.1,30-7.8,40.6-1.6l649.6,379.8c5.3,3.1,8.2,7.6,8.2,12.6c0,5.8-4,11.4-10.9,15.4l-442.8,262.7
		C943.2,1294,934.9,1296,927.1,1296z M727.8,622.9c-6.7,0-13.7,1.6-19.1,4.8L265.9,890.4c-4.5,2.7-7.2,6-7.2,9
		c0,2.9,2.5,4.9,4.6,6.2l649.6,379.8c0,0,0,0,0,0c8.3,4.9,23.5,4.1,33.3-1.6l442.8-262.7c4.5-2.7,7.2-6,7.2-9c0-2.9-2.5-4.9-4.6-6.2
		L742,626.1C738.3,624,733.2,622.9,727.8,622.9z"/>
	
		<radialGradient id="SVGID_5_" cx="758.0014" cy="574.6072" r="223.2961" gradientTransform="matrix(3.9408 0 0 3.9903 -2099.4448 -2200.8357)" gradientUnits="userSpaceOnUse">
		<stop  offset="0" style="stop-color:#E39A65"/>
		<stop  offset="0.4742" style="stop-color:#A92FFB"/>
		<stop  offset="0.5947" style="stop-color:#891CFB"/>
		<stop  offset="0.7421" style="stop-color:#6507FA"/>
		<stop  offset="0.8016" style="stop-color:#0D0C6F"/>
	</radialGradient>
	<path class="st5" d="M1465.2,444.3L898.3,112.8c-3.9-2.3-8-2.7-11.6-1.7v0l0,0c0,0,0,0-0.1,0l-10.5,3.7l3.7,0.9
		c-1.5,1.8-2.7,4-3.5,6.6L748.2,543.8c-3.2,10.5,1.5,23.2,10.4,28.4l566.9,331.4c1.4,0.8,2.8,1.4,4.2,1.7l-1.4,3.1l10-3.6l0,0
		c4.1-1.7,7.5-5.4,9.1-10.7l128.2-421.5C1478.8,462.2,1474.1,449.5,1465.2,444.3z"/>
	
		<radialGradient id="SVGID_6_" cx="621.4288" cy="753.9302" r="244.1723" gradientTransform="matrix(3.9408 0 0 3.9903 -2099.4448 -2200.8357)" gradientUnits="userSpaceOnUse">
		<stop  offset="0" style="stop-color:#E39A65"/>
		<stop  offset="0.4742" style="stop-color:#A92FFB"/>
		<stop  offset="0.5679" style="stop-color:#891CFB"/>
		<stop  offset="0.6825" style="stop-color:#6507FA"/>
		<stop  offset="0.7381" style="stop-color:#0D0C6F"/>
	</radialGradient>
	<path class="st6" d="M1305.2,919.3l0.2,0.2l-560-327.4c-8.2-4.8-22.6-4.2-32.1,1.3L351.5,805.1l-12.1-4.7l3.4,17.1l0,0
		c0.4,2.6,2.2,5,5.4,6.9l565.2,330.4c8.2,4.8,22.6,4.2,32.1-1.3l362.7-212c4.5-2.6,7-5.9,7.7-9.1l0,0l3.5-16.7L1305.2,919.3z"/>
	
		<radialGradient id="SVGID_7_" cx="643.886" cy="704.9207" r="218.96" gradientTransform="matrix(3.9408 0 0 3.9903 -2099.4448 -2200.8357)" gradientUnits="userSpaceOnUse">
		<stop  offset="0" style="stop-color:#E39A65"/>
		<stop  offset="0.4742" style="stop-color:#A92FFB"/>
		<stop  offset="0.5875" style="stop-color:#891CFB"/>
		<stop  offset="0.7262" style="stop-color:#6507FA"/>
		<stop  offset="1" style="stop-color:#3919BB"/>
	</radialGradient>
	<path class="st7" d="M914,1139.7L344.8,807c-8.3-4.9-7.3-13.3,2.3-18.9l365.3-213.6c9.6-5.6,24.1-6.2,32.4-1.4L1314,905.9
		c8.3,4.9,7.3,13.3-2.3,18.9l-365.3,213.6C936.8,1144,922.3,1144.6,914,1139.7z"/>
	<path class="st8" d="M1311.7,920.3l-365.3,213.6c-9.6,5.6-24.1,6.2-32.4,1.4L344.8,802.5c-2.8-1.7-4.5-3.7-5.2-6
		c-1.1,3.9,0.5,7.7,5.2,10.5L914,1139.7c8.3,4.8,22.8,4.2,32.4-1.4l365.3-213.6c6.3-3.7,8.8-8.6,7.5-12.9
		C1318.3,914.9,1315.9,917.9,1311.7,920.3z"/>
	<g class="st9">
		<path class="st10" d="M616.3,753l-19.2-11.2c-1.5-0.9-1.3-2.5,0.4-3.5l22.7-13.3c1.8-1,4.5-1.2,6-0.3l19.2,11.2
			c1.5,0.9,1.3,2.5-0.4,3.5l-22.7,13.3C620.6,753.8,617.9,753.9,616.3,753z"/>
		<path class="st10" d="M646,770.3l-19.2-11.2c-1.5-0.9-1.3-2.5,0.4-3.5l22.7-13.3c1.8-1,4.5-1.2,6-0.3l19.2,11.2
			c1.5,0.9,1.3,2.5-0.4,3.5L652,770.1C650.2,771.1,647.6,771.2,646,770.3z"/>
		<path class="st10" d="M675.7,787.7l-19.2-11.2c-1.5-0.9-1.3-2.5,0.4-3.5l22.7-13.3c1.8-1,4.5-1.2,6-0.3l19.2,11.2
			c1.5,0.9,1.3,2.5-0.4,3.5l-22.7,13.3C679.9,788.5,677.2,788.6,675.7,787.7z"/>
		<path class="st10" d="M716.7,773.4l-19.2-11.2c-1.5-0.9-1.3-2.5,0.4-3.5l19-11.1c1.8-1,4.5-1.2,6-0.3l19.2,11.2
			c1.5,0.9,1.3,2.5-0.4,3.5l-19,11.1C721,774.1,718.3,774.3,716.7,773.4z"/>
		<path class="st10" d="M746.4,790.7l-19.2-11.2c-1.5-0.9-1.3-2.5,0.4-3.5l19-11.1c1.8-1,4.5-1.2,6-0.3l19.2,11.2
			c1.5,0.9,1.3,2.5-0.4,3.5l-19,11.1C750.6,791.5,747.9,791.6,746.4,790.7z"/>
		<path class="st10" d="M776.1,808.1l-19.2-11.2c-1.5-0.9-1.3-2.5,0.4-3.5l19-11.1c1.8-1,4.5-1.2,6-0.3l19.2,11.2
			c1.5,0.9,1.3,2.5-0.4,3.5l-19,11.1C780.3,808.8,777.6,809,776.1,808.1z"/>
		<path class="st10" d="M805.8,825.4l-19.2-11.2c-1.5-0.9-1.3-2.5,0.4-3.5l19-11.1c1.8-1,4.5-1.2,6-0.3l19.2,11.2
			c1.5,0.9,1.3,2.5-0.4,3.5l-19,11.1C810,826.2,807.3,826.3,805.8,825.4z"/>
		<path class="st10" d="M835.4,842.7l-19.2-11.2c-1.5-0.9-1.3-2.5,0.4-3.5l19-11.1c1.8-1,4.5-1.2,6-0.3l19.2,11.2
			c1.5,0.9,1.3,2.5-0.4,3.5l-19,11.1C839.7,843.5,837,843.6,835.4,842.7z"/>
		<path class="st10" d="M865.1,860.1l-19.2-11.2c-1.5-0.9-1.3-2.5,0.4-3.5l19-11.1c1.8-1,4.5-1.2,6-0.3l19.2,11.2
			c1.5,0.9,1.3,2.5-0.4,3.5l-19,11.1C869.3,860.9,866.6,861,865.1,860.1z"/>
		<path class="st10" d="M894.8,877.4l-19.2-11.2c-1.5-0.9-1.3-2.5,0.4-3.5l19-11.1c1.8-1,4.5-1.2,6-0.3l19.2,11.2
			c1.5,0.9,1.3,2.5-0.4,3.5l-19,11.1C899,878.2,896.3,878.3,894.8,877.4z"/>
		<path class="st10" d="M924.5,894.8l-19.2-11.2c-1.5-0.9-1.3-2.5,0.4-3.5l19-11.1c1.8-1,4.5-1.2,6-0.3l19.2,11.2
			c1.5,0.9,1.3,2.5-0.4,3.5l-19,11.1C928.7,895.6,926,895.7,924.5,894.8z"/>
		<path class="st10" d="M954.1,912.1l-19.2-11.2c-1.5-0.9-1.3-2.5,0.4-3.5l19-11.1c1.8-1,4.5-1.2,6-0.3l19.2,11.2
			c1.5,0.9,1.3,2.5-0.4,3.5l-19,11.1C958.4,912.9,955.7,913,954.1,912.1z"/>
		<path class="st10" d="M983.8,929.5l-19.2-11.2c-1.5-0.9-1.3-2.5,0.4-3.5l19-11.1c1.8-1,4.5-1.2,6-0.3l19.2,11.2
			c1.5,0.9,1.3,2.5-0.4,3.5l-19,11.1C988,930.3,985.3,930.4,983.8,929.5z"/>
		<path class="st10" d="M760.5,765.1l-19.2-11.2c-1.5-0.9-1.3-2.5,0.4-3.5l19-11.1c1.8-1,4.5-1.2,6-0.3l19.2,11.2
			c1.5,0.9,1.3,2.5-0.4,3.5l-19,11.1C764.7,765.9,762,766,760.5,765.1z"/>
		<path class="st10" d="M730.3,747.5l-19.2-11.2c-1.5-0.9-1.3-2.5,0.4-3.5l19-11.1c1.8-1,4.5-1.2,6-0.3l19.2,11.2
			c1.5,0.9,1.3,2.5-0.4,3.5l-19,11.1C734.6,748.3,731.9,748.4,730.3,747.5z"/>
		<path class="st10" d="M700.2,729.9l-41.4-24.2c-1.5-0.9-1.3-2.5,0.4-3.5l19-11.1c1.8-1,4.5-1.2,6-0.3l41.4,24.2
			c1.5,0.9,1.3,2.5-0.4,3.5l-19,11.1C704.4,730.7,701.7,730.8,700.2,729.9z"/>
		<path class="st10" d="M721.3,708.5l-33.6-19.6c-1.5-0.9-1.3-2.5,0.4-3.5l19-11.1c1.8-1,4.5-1.2,6-0.3l33.6,19.6
			c1.5,0.9,1.3,2.5-0.4,3.5l-19,11.1C725.5,709.2,722.8,709.4,721.3,708.5z"/>
		<path class="st10" d="M790.1,782.5l-19.2-11.2c-1.5-0.9-1.3-2.5,0.4-3.5l19-11.1c1.8-1,4.5-1.2,6-0.3l19.2,11.2
			c1.5,0.9,1.3,2.5-0.4,3.5l-19,11.1C794.4,783.3,791.7,783.4,790.1,782.5z"/>
		<path class="st10" d="M819.8,799.8l-19.2-11.2c-1.5-0.9-1.3-2.5,0.4-3.5l19-11.1c1.8-1,4.5-1.2,6-0.3l19.2,11.2
			c1.5,0.9,1.3,2.5-0.4,3.5l-19,11.1C824,800.6,821.3,800.7,819.8,799.8z"/>
		<path class="st10" d="M849.5,817.2L830.3,806c-1.5-0.9-1.3-2.5,0.4-3.5l19-11.1c1.8-1,4.5-1.2,6-0.3l19.2,11.2
			c1.5,0.9,1.3,2.5-0.4,3.5l-19,11.1C853.7,818,851,818.1,849.5,817.2z"/>
		<path class="st10" d="M879.2,834.5l-19.2-11.2c-1.5-0.9-1.3-2.5,0.4-3.5l19-11.1c1.8-1,4.5-1.2,6-0.3l19.2,11.2
			c1.5,0.9,1.3,2.5-0.4,3.5l-19,11.1C883.4,835.3,880.7,835.4,879.2,834.5z"/>
		<path class="st10" d="M908.8,851.9l-19.2-11.2c-1.5-0.9-1.3-2.5,0.4-3.5l19-11.1c1.8-1,4.5-1.2,6-0.3l19.2,11.2
			c1.5,0.9,1.3,2.5-0.4,3.5l-19,11.1C913.1,852.7,910.4,852.8,908.8,851.9z"/>
		<path class="st10" d="M938.5,869.2L919.3,858c-1.5-0.9-1.3-2.5,0.4-3.5l19-11.1c1.8-1,4.5-1.2,6-0.3l19.2,11.2
			c1.5,0.9,1.3,2.5-0.4,3.5l-19,11.1C942.7,870,940,870.1,938.5,869.2z"/>
		<path class="st10" d="M968.2,886.6L949,875.3c-1.5-0.9-1.3-2.5,0.4-3.5l19-11.1c1.8-1,4.5-1.2,6-0.3l19.2,11.2
			c1.5,0.9,1.3,2.5-0.4,3.5l-19,11.1C972.4,887.4,969.7,887.5,968.2,886.6z"/>
		<path class="st10" d="M997.9,903.9l-19.2-11.2c-1.5-0.9-1.3-2.5,0.4-3.5l19-11.1c1.8-1,4.5-1.2,6-0.3l19.2,11.2
			c1.5,0.9,1.3,2.5-0.4,3.5l-19,11.1C1002.1,904.7,999.4,904.8,997.9,903.9z"/>
		<path class="st10" d="M1027.5,921.3l-19.2-11.2c-1.5-0.9-1.3-2.5,0.4-3.5l19-11.1c1.8-1,4.5-1.2,6-0.3l19.2,11.2
			c1.5,0.9,1.3,2.5-0.4,3.5l-19,11.1C1031.8,922.1,1029.1,922.2,1027.5,921.3z"/>
		<path class="st10" d="M1080.3,952.1l-41.9-24.5c-1.5-0.9-1.3-2.5,0.4-3.5l19-11.1c1.8-1,4.5-1.2,6-0.3l41.9,24.5
			c1.5,0.9,1.3,2.5-0.4,3.5l-19,11.1C1084.5,952.9,1081.8,953,1080.3,952.1z"/>
		<path class="st10" d="M1138.1,918.3l-35.4-20.7c-1.5-0.9-1.3-2.5,0.4-3.5l19-11.1c1.8-1,4.5-1.2,6-0.3l35.4,20.7
			c1.5,0.9,1.3,2.5-0.4,3.5l-19,11.1C1142.3,919.1,1139.6,919.2,1138.1,918.3z"/>
		<path class="st10" d="M842.1,779.1l-19.2-11.2c-1.5-0.9-1.3-2.5,0.4-3.5l19-11.1c1.8-1,4.5-1.2,6-0.3l19.2,11.2
			c1.5,0.9,1.3,2.5-0.4,3.5l-19,11.1C846.3,779.9,843.6,780,842.1,779.1z"/>
		<path class="st10" d="M811.7,761.3l-19.2-11.2c-1.5-0.9-1.3-2.5,0.4-3.5l19-11.1c1.8-1,4.5-1.2,6-0.3l19.2,11.2
			c1.5,0.9,1.3,2.5-0.4,3.5l-19,11.1C815.9,762.1,813.2,762.2,811.7,761.3z"/>
		<path class="st10" d="M781.3,743.5l-19.2-11.2c-1.5-0.9-1.3-2.5,0.4-3.5l19-11.1c1.8-1,4.5-1.2,6-0.3l19.2,11.2
			c1.5,0.9,1.3,2.5-0.4,3.5l-19,11.1C785.5,744.3,782.8,744.4,781.3,743.5z"/>
		<path class="st10" d="M750.9,725.8l-19.2-11.2c-1.5-0.9-1.3-2.5,0.4-3.5l19-11.1c1.8-1,4.5-1.2,6-0.3l19.2,11.2
			c1.5,0.9,1.3,2.5-0.4,3.5l-19,11.1C755.1,726.5,752.4,726.7,750.9,725.8z"/>
		<path class="st10" d="M871.8,796.4l-19.2-11.2c-1.5-0.9-1.3-2.5,0.4-3.5l19-11.1c1.8-1,4.5-1.2,6-0.3l19.2,11.2
			c1.5,0.9,1.3,2.5-0.4,3.5l-19,11.1C876,797.2,873.3,797.3,871.8,796.4z"/>
		<path class="st10" d="M901.4,813.8l-19.2-11.2c-1.5-0.9-1.3-2.5,0.4-3.5l19-11.1c1.8-1,4.5-1.2,6-0.3l19.2,11.2
			c1.5,0.9,1.3,2.5-0.4,3.5l-19,11.1C905.7,814.6,903,814.7,901.4,813.8z"/>
		<path class="st10" d="M931.1,831.1l-19.2-11.2c-1.5-0.9-1.3-2.5,0.4-3.5l19-11.1c1.8-1,4.5-1.2,6-0.3l19.2,11.2
			c1.5,0.9,1.3,2.5-0.4,3.5l-19,11.1C935.4,831.9,932.7,832,931.1,831.1z"/>
		<path class="st10" d="M960.8,848.5l-19.2-11.2c-1.5-0.9-1.3-2.5,0.4-3.5l19-11.1c1.8-1,4.5-1.2,6-0.3l19.2,11.2
			c1.5,0.9,1.3,2.5-0.4,3.5l-19,11.1C965,849.3,962.3,849.4,960.8,848.5z"/>
		<path class="st10" d="M990.5,865.8l-19.2-11.2c-1.5-0.9-1.3-2.5,0.4-3.5l19-11.1c1.8-1,4.5-1.2,6-0.3l19.2,11.2
			c1.5,0.9,1.3,2.5-0.4,3.5l-19,11.1C994.7,866.6,992,866.7,990.5,865.8z"/>
		<path class="st10" d="M1020.1,883.2l-19.2-11.2c-1.5-0.9-1.3-2.5,0.4-3.5l19-11.1c1.8-1,4.5-1.2,6-0.3l19.2,11.2
			c1.5,0.9,1.3,2.5-0.4,3.5l-19,11.1C1024.4,884,1021.7,884.1,1020.1,883.2z"/>
		<path class="st10" d="M1049.8,900.5l-19.2-11.2c-1.5-0.9-1.3-2.5,0.4-3.5l19-11.1c1.8-1,4.5-1.2,6-0.3l19.2,11.2
			c1.5,0.9,1.3,2.5-0.4,3.5l-19,11.1C1054.1,901.3,1051.4,901.4,1049.8,900.5z"/>
		<path class="st10" d="M1079.5,917.9l-19.2-11.2c-1.5-0.9-1.3-2.5,0.4-3.5l19-11.1c1.8-1,4.5-1.2,6-0.3L1105,903
			c1.5,0.9,1.3,2.5-0.4,3.5l-19,11.1C1083.7,918.7,1081,918.8,1079.5,917.9z"/>
		<path class="st10" d="M1109.2,935.2L1090,924c-1.5-0.9-1.3-2.5,0.4-3.5l19-11.1c1.8-1,4.5-1.2,6-0.3l19.2,11.2
			c1.5,0.9,1.3,2.5-0.4,3.5l-19,11.1C1113.4,936,1110.7,936.1,1109.2,935.2z"/>
		<path class="st10" d="M826.5,736.2L807.3,725c-1.5-0.9-1.3-2.5,0.4-3.5l19-11.1c1.8-1,4.5-1.2,6-0.3l19.2,11.2
			c1.5,0.9,1.3,2.5-0.4,3.5l-19,11.1C830.7,737,828,737.1,826.5,736.2z"/>
		<path class="st10" d="M796.9,718.9l-19.2-11.2c-1.5-0.9-1.3-2.5,0.4-3.5l19-11.1c1.8-1,4.5-1.2,6-0.3l19.2,11.2
			c1.5,0.9,1.3,2.5-0.4,3.5l-19,11.1C801.2,719.7,798.5,719.8,796.9,718.9z"/>
		<path class="st10" d="M767.4,701.7l-19.2-11.2c-1.5-0.9-1.3-2.5,0.4-3.5l19-11.1c1.8-1,4.5-1.2,6-0.3l19.2,11.2
			c1.5,0.9,1.3,2.5-0.4,3.5l-19,11.1C771.7,702.5,769,702.6,767.4,701.7z"/>
		<path class="st10" d="M737.9,684.4l-19.2-11.2c-1.5-0.9-1.3-2.5,0.4-3.5l19-11.1c1.8-1,4.5-1.2,6-0.3l19.2,11.2
			c1.5,0.9,1.3,2.5-0.4,3.5l-19,11.1C742.1,685.2,739.4,685.3,737.9,684.4z"/>
		<path class="st10" d="M768.2,666.6L749,655.4c-1.5-0.9-1.3-2.5,0.4-3.5l6.3-3.7c1.8-1,4.5-1.2,6-0.3l19.2,11.2
			c1.5,0.9,1.3,2.5-0.4,3.5l-6.3,3.7C772.5,667.4,769.8,667.6,768.2,666.6z"/>
		<path class="st10" d="M806.8,689.2l-19.2-11.2c-1.5-0.9-1.3-2.5,0.4-3.5l6.3-3.7c1.8-1,4.5-1.2,6-0.3l19.2,11.2
			c1.5,0.9,1.3,2.5-0.4,3.5l-6.3,3.7C811,690,808.3,690.1,806.8,689.2z"/>
		<path class="st10" d="M836.2,706.4L817,695.1c-1.5-0.9-1.3-2.5,0.4-3.5l6.3-3.7c1.8-1,4.5-1.2,6-0.3l19.2,11.2
			c1.5,0.9,1.3,2.5-0.4,3.5l-6.3,3.7C840.4,707.2,837.7,707.3,836.2,706.4z"/>
		<path class="st10" d="M865.6,723.6l-19.2-11.2c-1.5-0.9-1.3-2.5,0.4-3.5l6.3-3.7c1.8-1,4.5-1.2,6-0.3l19.2,11.2
			c1.5,0.9,1.3,2.5-0.4,3.5l-6.3,3.7C869.8,724.3,867.1,724.5,865.6,723.6z"/>
		<path class="st10" d="M895,740.7l-19.2-11.2c-1.5-0.9-1.3-2.5,0.4-3.5l6.3-3.7c1.8-1,4.5-1.2,6-0.3l19.2,11.2
			c1.5,0.9,1.3,2.5-0.4,3.5l-6.3,3.7C899.2,741.5,896.5,741.6,895,740.7z"/>
		<path class="st10" d="M1059.2,836.7l-19.2-11.2c-1.5-0.9-1.3-2.5,0.4-3.5l6.3-3.7c1.8-1,4.5-1.2,6-0.3l19.2,11.2
			c1.5,0.9,1.3,2.5-0.4,3.5l-6.3,3.7C1063.4,837.5,1060.7,837.6,1059.2,836.7z"/>
		<path class="st10" d="M1088.6,853.9l-19.2-11.2c-1.5-0.9-1.3-2.5,0.4-3.5l6.3-3.7c1.8-1,4.5-1.2,6-0.3l19.2,11.2
			c1.5,0.9,1.3,2.5-0.4,3.5l-6.3,3.7C1092.8,854.7,1090.1,854.8,1088.6,853.9z"/>
		<path class="st10" d="M1118,871.1l-19.2-11.2c-1.5-0.9-1.3-2.5,0.4-3.5l6.3-3.7c1.8-1,4.5-1.2,6-0.3l19.2,11.2
			c1.5,0.9,1.3,2.5-0.4,3.5l-6.3,3.7C1122.2,871.9,1119.5,872,1118,871.1z"/>
		<path class="st10" d="M1147.4,888.3l-19.2-11.2c-1.5-0.9-1.3-2.5,0.4-3.5l6.3-3.7c1.8-1,4.5-1.2,6-0.3l19.2,11.2
			c1.5,0.9,1.3,2.5-0.4,3.5l-6.3,3.7C1151.6,889.1,1148.9,889.2,1147.4,888.3z"/>
		<path class="st10" d="M856.1,753.5l-19.2-11.2c-1.5-0.9-1.3-2.5,0.4-3.5l19-11.1c1.8-1,4.5-1.2,6-0.3l19.2,11.2
			c1.5,0.9,1.3,2.5-0.4,3.5l-19,11.1C860.4,754.3,857.7,754.4,856.1,753.5z"/>
		<path class="st10" d="M885.8,770.9l-19.2-11.2c-1.5-0.9-1.3-2.5,0.4-3.5l19-11.1c1.8-1,4.5-1.2,6-0.3l19.2,11.2
			c1.5,0.9,1.3,2.5-0.4,3.5l-19,11.1C890.1,771.7,887.4,771.8,885.8,770.9z"/>
		<path class="st10" d="M915.5,788.2L896.3,777c-1.5-0.9-1.3-2.5,0.4-3.5l19-11.1c1.8-1,4.5-1.2,6-0.3l19.2,11.2
			c1.5,0.9,1.3,2.5-0.4,3.5l-19,11.1C919.7,789,917,789.1,915.5,788.2z"/>
		<path class="st10" d="M945.2,805.6L926,794.3c-1.5-0.9-1.3-2.5,0.4-3.5l19-11.1c1.8-1,4.5-1.2,6-0.3l19.2,11.2
			c1.5,0.9,1.3,2.5-0.4,3.5l-19,11.1C949.4,806.4,946.7,806.5,945.2,805.6z"/>
		<path class="st10" d="M974.8,822.9l-19.2-11.2c-1.5-0.9-1.3-2.5,0.4-3.5l19-11.1c1.8-1,4.5-1.2,6-0.3l19.2,11.2
			c1.5,0.9,1.3,2.5-0.4,3.5l-19,11.1C979.1,823.7,976.4,823.8,974.8,822.9z"/>
		<path class="st10" d="M1004.5,840.3L985.3,829c-1.5-0.9-1.3-2.5,0.4-3.5l19-11.1c1.8-1,4.5-1.2,6-0.3l19.2,11.2
			c1.5,0.9,1.3,2.5-0.4,3.5l-19,11.1C1008.8,841.1,1006.1,841.2,1004.5,840.3z"/>
		<path class="st10" d="M1034.2,857.6l-19.2-11.2c-1.5-0.9-1.3-2.5,0.4-3.5l19-11.1c1.8-1,4.5-1.2,6-0.3l19.2,11.2
			c1.5,0.9,1.3,2.5-0.4,3.5l-19,11.1C1038.4,858.4,1035.7,858.5,1034.2,857.6z"/>
		<path class="st10" d="M1063.9,875l-19.2-11.2c-1.5-0.9-1.3-2.5,0.4-3.5l19-11.1c1.8-1,4.5-1.2,6-0.3l19.2,11.2
			c1.5,0.9,1.3,2.5-0.4,3.5l-19,11.1C1068.1,875.8,1065.4,875.9,1063.9,875z"/>
		<path class="st10" d="M1093.5,892.3l-19.2-11.2c-1.5-0.9-1.3-2.5,0.4-3.5l19-11.1c1.8-1,4.5-1.2,6-0.3l19.2,11.2
			c1.5,0.9,1.3,2.5-0.4,3.5l-19,11.1C1097.8,893.1,1095.1,893.2,1093.5,892.3z"/>
		<path class="st10" d="M686.5,755.7l-56.6-33.1c-1.5-0.9-1.3-2.5,0.4-3.5l19-11.1c1.8-1,4.5-1.2,6-0.3l56.6,33.1
			c1.5,0.9,1.3,2.5-0.4,3.5l-19,11.1C690.7,756.5,688,756.6,686.5,755.7z"/>
		<path class="st10" d="M1051.1,968.8l-56.6-33.1c-1.5-0.9-1.3-2.5,0.4-3.5l19-11.1c1.8-1,4.5-1.2,6-0.3l56.6,33.1
			c1.5,0.9,1.3,2.5-0.4,3.5l-19,11.1C1055.3,969.6,1052.6,969.7,1051.1,968.8z"/>
		<path class="st10" d="M932.4,937.7l-19.2-11.2c-1.5-0.9-1.3-2.5,0.4-3.5l22.7-13.3c1.8-1,4.5-1.2,6-0.3l19.2,11.2
			c1.5,0.9,1.3,2.5-0.4,3.5l-22.7,13.3C936.6,938.5,933.9,938.6,932.4,937.7z"/>
		<path class="st10" d="M716.9,811.8l-30.7-18c-1.5-0.9-1.3-2.5,0.4-3.5l22.7-13.3c1.8-1,4.5-1.2,6-0.3l30.7,18
			c1.5,0.9,1.3,2.5-0.4,3.5l-22.7,13.3C721.1,812.6,718.4,812.7,716.9,811.8z"/>
		<path class="st10" d="M903.8,921l-30.7-18c-1.5-0.9-1.3-2.5,0.4-3.5l22.7-13.3c1.8-1,4.5-1.2,6-0.3l30.7,18
			c1.5,0.9,1.3,2.5-0.4,3.5l-22.7,13.3C908,921.8,905.3,921.9,903.8,921z"/>
		<path class="st10" d="M759.7,836.8l-30.7-18c-1.5-0.9-1.3-2.5,0.4-3.5l22.7-13.3c1.8-1,4.5-1.2,6-0.3l30.7,18
			c1.5,0.9,1.3,2.5-0.4,3.5l-22.7,13.3C763.9,837.6,761.2,837.7,759.7,836.8z"/>
		<path class="st10" d="M758.3,801.9L891.9,880c1.7,1,1.7,2.5,0,3.5l-23.1,13.5c-1.7,1-4.3,1-6,0l-133.6-78.1L758.3,801.9z"/>
		<path class="st10" d="M1015.3,969.2l21.4,12.5c1.3,0.7,1.1,2-0.4,2.9l-9.3,5.4c-1.5,0.9-3.7,0.9-4.9,0.2l-21.4-12.5
			c-1.3-0.7-1.1-2,0.4-2.9l9.3-5.4C1011.8,968.6,1014.1,968.5,1015.3,969.2z"/>
		<path class="st10" d="M985.4,951.7l21.4,12.5c1.3,0.7,1.1,2-0.4,2.9l-9.3,5.4c-1.5,0.9-3.7,0.9-4.9,0.2l-21.4-12.5
			c-1.3-0.7-1.1-2,0.4-2.9l9.3-5.4C981.9,951.1,984.1,951,985.4,951.7z"/>
		<path class="st10" d="M955.7,934.4l21.4,12.5c1.3,0.7,1.1,2-0.4,2.9l-9.3,5.4c-1.5,0.9-3.7,0.9-4.9,0.2l-21.4-12.5
			c-1.3-0.7-1.1-2,0.4-2.9l9.3-5.4C952.2,933.7,954.5,933.6,955.7,934.4z"/>
		<path class="st10" d="M1001.8,942.1l21.4,12.5c1.3,0.7,1.1,2-0.4,2.9l-9.3,5.4c-1.5,0.9-3.7,0.9-4.9,0.2l-21.4-12.5
			c-1.3-0.7-1.1-2,0.4-2.9l9.3-5.4C998.3,941.5,1000.5,941.4,1001.8,942.1z"/>
	</g>
	<g class="st9">
		<path class="st10" d="M616.3,753l-19.2-11.2c-1.5-0.9-1.3-2.5,0.4-3.5l22.7-13.3c1.8-1,4.5-1.2,6-0.3l19.2,11.2
			c1.5,0.9,1.3,2.5-0.4,3.5l-22.7,13.3C620.6,753.8,617.9,753.9,616.3,753z"/>
		<path class="st10" d="M646,770.3l-19.2-11.2c-1.5-0.9-1.3-2.5,0.4-3.5l22.7-13.3c1.8-1,4.5-1.2,6-0.3l19.2,11.2
			c1.5,0.9,1.3,2.5-0.4,3.5L652,770.1C650.2,771.1,647.6,771.2,646,770.3z"/>
		<path class="st10" d="M675.7,787.7l-19.2-11.2c-1.5-0.9-1.3-2.5,0.4-3.5l22.7-13.3c1.8-1,4.5-1.2,6-0.3l19.2,11.2
			c1.5,0.9,1.3,2.5-0.4,3.5l-22.7,13.3C679.9,788.5,677.2,788.6,675.7,787.7z"/>
		<path class="st10" d="M716.7,773.4l-19.2-11.2c-1.5-0.9-1.3-2.5,0.4-3.5l19-11.1c1.8-1,4.5-1.2,6-0.3l19.2,11.2
			c1.5,0.9,1.3,2.5-0.4,3.5l-19,11.1C721,774.1,718.3,774.3,716.7,773.4z"/>
		<path class="st10" d="M746.4,790.7l-19.2-11.2c-1.5-0.9-1.3-2.5,0.4-3.5l19-11.1c1.8-1,4.5-1.2,6-0.3l19.2,11.2
			c1.5,0.9,1.3,2.5-0.4,3.5l-19,11.1C750.6,791.5,747.9,791.6,746.4,790.7z"/>
		<path class="st10" d="M776.1,808.1l-19.2-11.2c-1.5-0.9-1.3-2.5,0.4-3.5l19-11.1c1.8-1,4.5-1.2,6-0.3l19.2,11.2
			c1.5,0.9,1.3,2.5-0.4,3.5l-19,11.1C780.3,808.8,777.6,809,776.1,808.1z"/>
		<path class="st10" d="M805.8,825.4l-19.2-11.2c-1.5-0.9-1.3-2.5,0.4-3.5l19-11.1c1.8-1,4.5-1.2,6-0.3l19.2,11.2
			c1.5,0.9,1.3,2.5-0.4,3.5l-19,11.1C810,826.2,807.3,826.3,805.8,825.4z"/>
		<path class="st10" d="M835.4,842.7l-19.2-11.2c-1.5-0.9-1.3-2.5,0.4-3.5l19-11.1c1.8-1,4.5-1.2,6-0.3l19.2,11.2
			c1.5,0.9,1.3,2.5-0.4,3.5l-19,11.1C839.7,843.5,837,843.6,835.4,842.7z"/>
		<path class="st10" d="M865.1,860.1l-19.2-11.2c-1.5-0.9-1.3-2.5,0.4-3.5l19-11.1c1.8-1,4.5-1.2,6-0.3l19.2,11.2
			c1.5,0.9,1.3,2.5-0.4,3.5l-19,11.1C869.3,860.9,866.6,861,865.1,860.1z"/>
		<path class="st10" d="M894.8,877.4l-19.2-11.2c-1.5-0.9-1.3-2.5,0.4-3.5l19-11.1c1.8-1,4.5-1.2,6-0.3l19.2,11.2
			c1.5,0.9,1.3,2.5-0.4,3.5l-19,11.1C899,878.2,896.3,878.3,894.8,877.4z"/>
		<path class="st10" d="M924.5,894.8l-19.2-11.2c-1.5-0.9-1.3-2.5,0.4-3.5l19-11.1c1.8-1,4.5-1.2,6-0.3l19.2,11.2
			c1.5,0.9,1.3,2.5-0.4,3.5l-19,11.1C928.7,895.6,926,895.7,924.5,894.8z"/>
		<path class="st10" d="M954.1,912.1l-19.2-11.2c-1.5-0.9-1.3-2.5,0.4-3.5l19-11.1c1.8-1,4.5-1.2,6-0.3l19.2,11.2
			c1.5,0.9,1.3,2.5-0.4,3.5l-19,11.1C958.4,912.9,955.7,913,954.1,912.1z"/>
		<path class="st10" d="M983.8,929.5l-19.2-11.2c-1.5-0.9-1.3-2.5,0.4-3.5l19-11.1c1.8-1,4.5-1.2,6-0.3l19.2,11.2
			c1.5,0.9,1.3,2.5-0.4,3.5l-19,11.1C988,930.3,985.3,930.4,983.8,929.5z"/>
		<path class="st10" d="M760.5,765.1l-19.2-11.2c-1.5-0.9-1.3-2.5,0.4-3.5l19-11.1c1.8-1,4.5-1.2,6-0.3l19.2,11.2
			c1.5,0.9,1.3,2.5-0.4,3.5l-19,11.1C764.7,765.9,762,766,760.5,765.1z"/>
		<path class="st10" d="M730.3,747.5l-19.2-11.2c-1.5-0.9-1.3-2.5,0.4-3.5l19-11.1c1.8-1,4.5-1.2,6-0.3l19.2,11.2
			c1.5,0.9,1.3,2.5-0.4,3.5l-19,11.1C734.6,748.3,731.9,748.4,730.3,747.5z"/>
		<path class="st10" d="M700.2,729.9l-41.4-24.2c-1.5-0.9-1.3-2.5,0.4-3.5l19-11.1c1.8-1,4.5-1.2,6-0.3l41.4,24.2
			c1.5,0.9,1.3,2.5-0.4,3.5l-19,11.1C704.4,730.7,701.7,730.8,700.2,729.9z"/>
		<path class="st10" d="M721.3,708.5l-33.6-19.6c-1.5-0.9-1.3-2.5,0.4-3.5l19-11.1c1.8-1,4.5-1.2,6-0.3l33.6,19.6
			c1.5,0.9,1.3,2.5-0.4,3.5l-19,11.1C725.5,709.2,722.8,709.4,721.3,708.5z"/>
		<path class="st10" d="M790.1,782.5l-19.2-11.2c-1.5-0.9-1.3-2.5,0.4-3.5l19-11.1c1.8-1,4.5-1.2,6-0.3l19.2,11.2
			c1.5,0.9,1.3,2.5-0.4,3.5l-19,11.1C794.4,783.3,791.7,783.4,790.1,782.5z"/>
		<path class="st10" d="M819.8,799.8l-19.2-11.2c-1.5-0.9-1.3-2.5,0.4-3.5l19-11.1c1.8-1,4.5-1.2,6-0.3l19.2,11.2
			c1.5,0.9,1.3,2.5-0.4,3.5l-19,11.1C824,800.6,821.3,800.7,819.8,799.8z"/>
		<path class="st10" d="M849.5,817.2L830.3,806c-1.5-0.9-1.3-2.5,0.4-3.5l19-11.1c1.8-1,4.5-1.2,6-0.3l19.2,11.2
			c1.5,0.9,1.3,2.5-0.4,3.5l-19,11.1C853.7,818,851,818.1,849.5,817.2z"/>
		<path class="st10" d="M879.2,834.5l-19.2-11.2c-1.5-0.9-1.3-2.5,0.4-3.5l19-11.1c1.8-1,4.5-1.2,6-0.3l19.2,11.2
			c1.5,0.9,1.3,2.5-0.4,3.5l-19,11.1C883.4,835.3,880.7,835.4,879.2,834.5z"/>
		<path class="st10" d="M908.8,851.9l-19.2-11.2c-1.5-0.9-1.3-2.5,0.4-3.5l19-11.1c1.8-1,4.5-1.2,6-0.3l19.2,11.2
			c1.5,0.9,1.3,2.5-0.4,3.5l-19,11.1C913.1,852.7,910.4,852.8,908.8,851.9z"/>
		<path class="st10" d="M938.5,869.2L919.3,858c-1.5-0.9-1.3-2.5,0.4-3.5l19-11.1c1.8-1,4.5-1.2,6-0.3l19.2,11.2
			c1.5,0.9,1.3,2.5-0.4,3.5l-19,11.1C942.7,870,940,870.1,938.5,869.2z"/>
		<path class="st10" d="M968.2,886.6L949,875.3c-1.5-0.9-1.3-2.5,0.4-3.5l19-11.1c1.8-1,4.5-1.2,6-0.3l19.2,11.2
			c1.5,0.9,1.3,2.5-0.4,3.5l-19,11.1C972.4,887.4,969.7,887.5,968.2,886.6z"/>
		<path class="st10" d="M997.9,903.9l-19.2-11.2c-1.5-0.9-1.3-2.5,0.4-3.5l19-11.1c1.8-1,4.5-1.2,6-0.3l19.2,11.2
			c1.5,0.9,1.3,2.5-0.4,3.5l-19,11.1C1002.1,904.7,999.4,904.8,997.9,903.9z"/>
		<path class="st10" d="M1027.5,921.3l-19.2-11.2c-1.5-0.9-1.3-2.5,0.4-3.5l19-11.1c1.8-1,4.5-1.2,6-0.3l19.2,11.2
			c1.5,0.9,1.3,2.5-0.4,3.5l-19,11.1C1031.8,922.1,1029.1,922.2,1027.5,921.3z"/>
		<path class="st10" d="M1080.3,952.1l-41.9-24.5c-1.5-0.9-1.3-2.5,0.4-3.5l19-11.1c1.8-1,4.5-1.2,6-0.3l41.9,24.5
			c1.5,0.9,1.3,2.5-0.4,3.5l-19,11.1C1084.5,952.9,1081.8,953,1080.3,952.1z"/>
		<path class="st10" d="M1138.1,918.3l-35.4-20.7c-1.5-0.9-1.3-2.5,0.4-3.5l19-11.1c1.8-1,4.5-1.2,6-0.3l35.4,20.7
			c1.5,0.9,1.3,2.5-0.4,3.5l-19,11.1C1142.3,919.1,1139.6,919.2,1138.1,918.3z"/>
		<path class="st10" d="M842.1,779.1l-19.2-11.2c-1.5-0.9-1.3-2.5,0.4-3.5l19-11.1c1.8-1,4.5-1.2,6-0.3l19.2,11.2
			c1.5,0.9,1.3,2.5-0.4,3.5l-19,11.1C846.3,779.9,843.6,780,842.1,779.1z"/>
		<path class="st10" d="M811.7,761.3l-19.2-11.2c-1.5-0.9-1.3-2.5,0.4-3.5l19-11.1c1.8-1,4.5-1.2,6-0.3l19.2,11.2
			c1.5,0.9,1.3,2.5-0.4,3.5l-19,11.1C815.9,762.1,813.2,762.2,811.7,761.3z"/>
		<path class="st10" d="M781.3,743.5l-19.2-11.2c-1.5-0.9-1.3-2.5,0.4-3.5l19-11.1c1.8-1,4.5-1.2,6-0.3l19.2,11.2
			c1.5,0.9,1.3,2.5-0.4,3.5l-19,11.1C785.5,744.3,782.8,744.4,781.3,743.5z"/>
		<path class="st10" d="M750.9,725.8l-19.2-11.2c-1.5-0.9-1.3-2.5,0.4-3.5l19-11.1c1.8-1,4.5-1.2,6-0.3l19.2,11.2
			c1.5,0.9,1.3,2.5-0.4,3.5l-19,11.1C755.1,726.5,752.4,726.7,750.9,725.8z"/>
		<path class="st10" d="M871.8,796.4l-19.2-11.2c-1.5-0.9-1.3-2.5,0.4-3.5l19-11.1c1.8-1,4.5-1.2,6-0.3l19.2,11.2
			c1.5,0.9,1.3,2.5-0.4,3.5l-19,11.1C876,797.2,873.3,797.3,871.8,796.4z"/>
		<path class="st10" d="M901.4,813.8l-19.2-11.2c-1.5-0.9-1.3-2.5,0.4-3.5l19-11.1c1.8-1,4.5-1.2,6-0.3l19.2,11.2
			c1.5,0.9,1.3,2.5-0.4,3.5l-19,11.1C905.7,814.6,903,814.7,901.4,813.8z"/>
		<path class="st10" d="M931.1,831.1l-19.2-11.2c-1.5-0.9-1.3-2.5,0.4-3.5l19-11.1c1.8-1,4.5-1.2,6-0.3l19.2,11.2
			c1.5,0.9,1.3,2.5-0.4,3.5l-19,11.1C935.4,831.9,932.7,832,931.1,831.1z"/>
		<path class="st10" d="M960.8,848.5l-19.2-11.2c-1.5-0.9-1.3-2.5,0.4-3.5l19-11.1c1.8-1,4.5-1.2,6-0.3l19.2,11.2
			c1.5,0.9,1.3,2.5-0.4,3.5l-19,11.1C965,849.3,962.3,849.4,960.8,848.5z"/>
		<path class="st10" d="M990.5,865.8l-19.2-11.2c-1.5-0.9-1.3-2.5,0.4-3.5l19-11.1c1.8-1,4.5-1.2,6-0.3l19.2,11.2
			c1.5,0.9,1.3,2.5-0.4,3.5l-19,11.1C994.7,866.6,992,866.7,990.5,865.8z"/>
		<path class="st10" d="M1020.1,883.2l-19.2-11.2c-1.5-0.9-1.3-2.5,0.4-3.5l19-11.1c1.8-1,4.5-1.2,6-0.3l19.2,11.2
			c1.5,0.9,1.3,2.5-0.4,3.5l-19,11.1C1024.4,884,1021.7,884.1,1020.1,883.2z"/>
		<path class="st10" d="M1049.8,900.5l-19.2-11.2c-1.5-0.9-1.3-2.5,0.4-3.5l19-11.1c1.8-1,4.5-1.2,6-0.3l19.2,11.2
			c1.5,0.9,1.3,2.5-0.4,3.5l-19,11.1C1054.1,901.3,1051.4,901.4,1049.8,900.5z"/>
		<path class="st10" d="M1079.5,917.9l-19.2-11.2c-1.5-0.9-1.3-2.5,0.4-3.5l19-11.1c1.8-1,4.5-1.2,6-0.3L1105,903
			c1.5,0.9,1.3,2.5-0.4,3.5l-19,11.1C1083.7,918.7,1081,918.8,1079.5,917.9z"/>
		<path class="st10" d="M1109.2,935.2L1090,924c-1.5-0.9-1.3-2.5,0.4-3.5l19-11.1c1.8-1,4.5-1.2,6-0.3l19.2,11.2
			c1.5,0.9,1.3,2.5-0.4,3.5l-19,11.1C1113.4,936,1110.7,936.1,1109.2,935.2z"/>
		<path class="st10" d="M826.5,736.2L807.3,725c-1.5-0.9-1.3-2.5,0.4-3.5l19-11.1c1.8-1,4.5-1.2,6-0.3l19.2,11.2
			c1.5,0.9,1.3,2.5-0.4,3.5l-19,11.1C830.7,737,828,737.1,826.5,736.2z"/>
		<path class="st10" d="M796.9,718.9l-19.2-11.2c-1.5-0.9-1.3-2.5,0.4-3.5l19-11.1c1.8-1,4.5-1.2,6-0.3l19.2,11.2
			c1.5,0.9,1.3,2.5-0.4,3.5l-19,11.1C801.2,719.7,798.5,719.8,796.9,718.9z"/>
		<path class="st10" d="M767.4,701.7l-19.2-11.2c-1.5-0.9-1.3-2.5,0.4-3.5l19-11.1c1.8-1,4.5-1.2,6-0.3l19.2,11.2
			c1.5,0.9,1.3,2.5-0.4,3.5l-19,11.1C771.7,702.5,769,702.6,767.4,701.7z"/>
		<path class="st10" d="M737.9,684.4l-19.2-11.2c-1.5-0.9-1.3-2.5,0.4-3.5l19-11.1c1.8-1,4.5-1.2,6-0.3l19.2,11.2
			c1.5,0.9,1.3,2.5-0.4,3.5l-19,11.1C742.1,685.2,739.4,685.3,737.9,684.4z"/>
		<path class="st10" d="M768.2,666.6L749,655.4c-1.5-0.9-1.3-2.5,0.4-3.5l6.3-3.7c1.8-1,4.5-1.2,6-0.3l19.2,11.2
			c1.5,0.9,1.3,2.5-0.4,3.5l-6.3,3.7C772.5,667.4,769.8,667.6,768.2,666.6z"/>
		<path class="st10" d="M806.8,689.2l-19.2-11.2c-1.5-0.9-1.3-2.5,0.4-3.5l6.3-3.7c1.8-1,4.5-1.2,6-0.3l19.2,11.2
			c1.5,0.9,1.3,2.5-0.4,3.5l-6.3,3.7C811,690,808.3,690.1,806.8,689.2z"/>
		<path class="st10" d="M836.2,706.4L817,695.1c-1.5-0.9-1.3-2.5,0.4-3.5l6.3-3.7c1.8-1,4.5-1.2,6-0.3l19.2,11.2
			c1.5,0.9,1.3,2.5-0.4,3.5l-6.3,3.7C840.4,707.2,837.7,707.3,836.2,706.4z"/>
		<path class="st10" d="M865.6,723.6l-19.2-11.2c-1.5-0.9-1.3-2.5,0.4-3.5l6.3-3.7c1.8-1,4.5-1.2,6-0.3l19.2,11.2
			c1.5,0.9,1.3,2.5-0.4,3.5l-6.3,3.7C869.8,724.3,867.1,724.5,865.6,723.6z"/>
		<path class="st10" d="M895,740.7l-19.2-11.2c-1.5-0.9-1.3-2.5,0.4-3.5l6.3-3.7c1.8-1,4.5-1.2,6-0.3l19.2,11.2
			c1.5,0.9,1.3,2.5-0.4,3.5l-6.3,3.7C899.2,741.5,896.5,741.6,895,740.7z"/>
		<path class="st10" d="M1059.2,836.7l-19.2-11.2c-1.5-0.9-1.3-2.5,0.4-3.5l6.3-3.7c1.8-1,4.5-1.2,6-0.3l19.2,11.2
			c1.5,0.9,1.3,2.5-0.4,3.5l-6.3,3.7C1063.4,837.5,1060.7,837.6,1059.2,836.7z"/>
		<path class="st10" d="M1088.6,853.9l-19.2-11.2c-1.5-0.9-1.3-2.5,0.4-3.5l6.3-3.7c1.8-1,4.5-1.2,6-0.3l19.2,11.2
			c1.5,0.9,1.3,2.5-0.4,3.5l-6.3,3.7C1092.8,854.7,1090.1,854.8,1088.6,853.9z"/>
		<path class="st10" d="M1118,871.1l-19.2-11.2c-1.5-0.9-1.3-2.5,0.4-3.5l6.3-3.7c1.8-1,4.5-1.2,6-0.3l19.2,11.2
			c1.5,0.9,1.3,2.5-0.4,3.5l-6.3,3.7C1122.2,871.9,1119.5,872,1118,871.1z"/>
		<path class="st10" d="M1147.4,888.3l-19.2-11.2c-1.5-0.9-1.3-2.5,0.4-3.5l6.3-3.7c1.8-1,4.5-1.2,6-0.3l19.2,11.2
			c1.5,0.9,1.3,2.5-0.4,3.5l-6.3,3.7C1151.6,889.1,1148.9,889.2,1147.4,888.3z"/>
		<path class="st10" d="M856.1,753.5l-19.2-11.2c-1.5-0.9-1.3-2.5,0.4-3.5l19-11.1c1.8-1,4.5-1.2,6-0.3l19.2,11.2
			c1.5,0.9,1.3,2.5-0.4,3.5l-19,11.1C860.4,754.3,857.7,754.4,856.1,753.5z"/>
		<path class="st10" d="M885.8,770.9l-19.2-11.2c-1.5-0.9-1.3-2.5,0.4-3.5l19-11.1c1.8-1,4.5-1.2,6-0.3l19.2,11.2
			c1.5,0.9,1.3,2.5-0.4,3.5l-19,11.1C890.1,771.7,887.4,771.8,885.8,770.9z"/>
		<path class="st10" d="M915.5,788.2L896.3,777c-1.5-0.9-1.3-2.5,0.4-3.5l19-11.1c1.8-1,4.5-1.2,6-0.3l19.2,11.2
			c1.5,0.9,1.3,2.5-0.4,3.5l-19,11.1C919.7,789,917,789.1,915.5,788.2z"/>
		<path class="st10" d="M945.2,805.6L926,794.3c-1.5-0.9-1.3-2.5,0.4-3.5l19-11.1c1.8-1,4.5-1.2,6-0.3l19.2,11.2
			c1.5,0.9,1.3,2.5-0.4,3.5l-19,11.1C949.4,806.4,946.7,806.5,945.2,805.6z"/>
		<path class="st10" d="M974.8,822.9l-19.2-11.2c-1.5-0.9-1.3-2.5,0.4-3.5l19-11.1c1.8-1,4.5-1.2,6-0.3l19.2,11.2
			c1.5,0.9,1.3,2.5-0.4,3.5l-19,11.1C979.1,823.7,976.4,823.8,974.8,822.9z"/>
		<path class="st10" d="M1004.5,840.3L985.3,829c-1.5-0.9-1.3-2.5,0.4-3.5l19-11.1c1.8-1,4.5-1.2,6-0.3l19.2,11.2
			c1.5,0.9,1.3,2.5-0.4,3.5l-19,11.1C1008.8,841.1,1006.1,841.2,1004.5,840.3z"/>
		<path class="st10" d="M1034.2,857.6l-19.2-11.2c-1.5-0.9-1.3-2.5,0.4-3.5l19-11.1c1.8-1,4.5-1.2,6-0.3l19.2,11.2
			c1.5,0.9,1.3,2.5-0.4,3.5l-19,11.1C1038.4,858.4,1035.7,858.5,1034.2,857.6z"/>
		<path class="st10" d="M1063.9,875l-19.2-11.2c-1.5-0.9-1.3-2.5,0.4-3.5l19-11.1c1.8-1,4.5-1.2,6-0.3l19.2,11.2
			c1.5,0.9,1.3,2.5-0.4,3.5l-19,11.1C1068.1,875.8,1065.4,875.9,1063.9,875z"/>
		<path class="st10" d="M1093.5,892.3l-19.2-11.2c-1.5-0.9-1.3-2.5,0.4-3.5l19-11.1c1.8-1,4.5-1.2,6-0.3l19.2,11.2
			c1.5,0.9,1.3,2.5-0.4,3.5l-19,11.1C1097.8,893.1,1095.1,893.2,1093.5,892.3z"/>
		<path class="st10" d="M686.5,755.7l-56.6-33.1c-1.5-0.9-1.3-2.5,0.4-3.5l19-11.1c1.8-1,4.5-1.2,6-0.3l56.6,33.1
			c1.5,0.9,1.3,2.5-0.4,3.5l-19,11.1C690.7,756.5,688,756.6,686.5,755.7z"/>
		<path class="st10" d="M1051.1,968.8l-56.6-33.1c-1.5-0.9-1.3-2.5,0.4-3.5l19-11.1c1.8-1,4.5-1.2,6-0.3l56.6,33.1
			c1.5,0.9,1.3,2.5-0.4,3.5l-19,11.1C1055.3,969.6,1052.6,969.7,1051.1,968.8z"/>
		<path class="st10" d="M932.4,937.7l-19.2-11.2c-1.5-0.9-1.3-2.5,0.4-3.5l22.7-13.3c1.8-1,4.5-1.2,6-0.3l19.2,11.2
			c1.5,0.9,1.3,2.5-0.4,3.5l-22.7,13.3C936.6,938.5,933.9,938.6,932.4,937.7z"/>
		<path class="st10" d="M716.9,811.8l-30.7-18c-1.5-0.9-1.3-2.5,0.4-3.5l22.7-13.3c1.8-1,4.5-1.2,6-0.3l30.7,18
			c1.5,0.9,1.3,2.5-0.4,3.5l-22.7,13.3C721.1,812.6,718.4,812.7,716.9,811.8z"/>
		<path class="st10" d="M903.8,921l-30.7-18c-1.5-0.9-1.3-2.5,0.4-3.5l22.7-13.3c1.8-1,4.5-1.2,6-0.3l30.7,18
			c1.5,0.9,1.3,2.5-0.4,3.5l-22.7,13.3C908,921.8,905.3,921.9,903.8,921z"/>
		<path class="st10" d="M759.7,836.8l-30.7-18c-1.5-0.9-1.3-2.5,0.4-3.5l22.7-13.3c1.8-1,4.5-1.2,6-0.3l30.7,18
			c1.5,0.9,1.3,2.5-0.4,3.5l-22.7,13.3C763.9,837.6,761.2,837.7,759.7,836.8z"/>
		<path class="st10" d="M758.3,801.9L891.9,880c1.7,1,1.7,2.5,0,3.5l-23.1,13.5c-1.7,1-4.3,1-6,0l-133.6-78.1L758.3,801.9z"/>
		<path class="st10" d="M1015.3,969.2l21.4,12.5c1.3,0.7,1.1,2-0.4,2.9l-9.3,5.4c-1.5,0.9-3.7,0.9-4.9,0.2l-21.4-12.5
			c-1.3-0.7-1.1-2,0.4-2.9l9.3-5.4C1011.8,968.6,1014.1,968.5,1015.3,969.2z"/>
		<path class="st10" d="M985.4,951.7l21.4,12.5c1.3,0.7,1.1,2-0.4,2.9l-9.3,5.4c-1.5,0.9-3.7,0.9-4.9,0.2l-21.4-12.5
			c-1.3-0.7-1.1-2,0.4-2.9l9.3-5.4C981.9,951.1,984.1,951,985.4,951.7z"/>
		<path class="st10" d="M955.7,934.4l21.4,12.5c1.3,0.7,1.1,2-0.4,2.9l-9.3,5.4c-1.5,0.9-3.7,0.9-4.9,0.2l-21.4-12.5
			c-1.3-0.7-1.1-2,0.4-2.9l9.3-5.4C952.2,933.7,954.5,933.6,955.7,934.4z"/>
		<path class="st10" d="M1001.8,942.1l21.4,12.5c1.3,0.7,1.1,2-0.4,2.9l-9.3,5.4c-1.5,0.9-3.7,0.9-4.9,0.2l-21.4-12.5
			c-1.3-0.7-1.1-2,0.4-2.9l9.3-5.4C998.3,941.5,1000.5,941.4,1001.8,942.1z"/>
	</g>
	
		<radialGradient id="SVGID_8_" cx="698.4335" cy="621.1847" r="223.3409" gradientTransform="matrix(3.9408 0 0 3.9903 -2099.4448 -2200.8357)" gradientUnits="userSpaceOnUse">
		<stop  offset="0" style="stop-color:#E39A65"/>
		<stop  offset="0.4742" style="stop-color:#A92FFB"/>
		<stop  offset="0.5875" style="stop-color:#891CFB"/>
		<stop  offset="0.7262" style="stop-color:#6507FA"/>
		<stop  offset="1" style="stop-color:#3919BB"/>
	</radialGradient>
	<path class="st11" d="M1315.9,907L748.9,575.6c-8.9-5.2-13.6-17.9-10.4-28.4l128.2-421.5c3.2-10.5,13-14.7,21.9-9.5l566.9,331.4
		c8.9,5.2,13.6,17.9,10.4,28.4l-128.2,421.5C1334.6,908,1324.8,912.2,1315.9,907z"/>
	<linearGradient id="SVGID_9_" gradientUnits="userSpaceOnUse" x1="749.7078" y1="511.8153" x2="1454.9852" y2="511.8153">
		<stop  offset="0" style="stop-color:#3919BB"/>
		<stop  offset="1" style="stop-color:#6507FA"/>
	</linearGradient>
	<path class="st12" d="M1310.5,892.3L760.6,570.5c-8.5-5-13-17.1-9.9-27.1l122.6-403c3-10,12.4-14.1,20.9-9.1l549.9,321.7
		c8.5,5,13,17.1,9.9,27.1l-122.6,403C1328.4,893.2,1319,897.3,1310.5,892.3z"/>
	<path class="st13" d="M1310.5,892.3L760.6,570.5c-8.5-5-13-17.1-9.9-27.1l122.6-403c3-10,12.4-14.1,20.9-9.1l549.9,321.7
		c8.5,5,13,17.1,9.9,27.1l-122.6,403C1328.4,893.2,1319,897.3,1310.5,892.3z"/>
	<path class="st13" d="M1310.5,892.3L760.6,570.5c-8.5-5-13-17.1-9.9-27.1l122.6-403c3-10,12.4-14.1,20.9-9.1l549.9,321.7
		c8.5,5,13,17.1,9.9,27.1l-122.6,403C1328.4,893.2,1319,897.3,1310.5,892.3z"/>
	<path class="st14" d="M1281,769.1L908.7,551.5c-5.9-3.4-8.9-11.8-6.8-18.6l84.2-276.8c2.1-6.9,8.5-9.7,14.4-6.2l372.3,217.6
		c5.9,3.4,8.9,11.8,6.8,18.6l-84.2,276.8C1293.3,769.8,1286.8,772.6,1281,769.1z"/>
	<g>
		
			<radialGradient id="SVGID_10_" cx="616.9018" cy="573.4914" r="347.8475" gradientTransform="matrix(3.9408 0 0 3.9903 -2099.4448 -2200.8357)" gradientUnits="userSpaceOnUse">
			<stop  offset="0" style="stop-color:#E39A65"/>
			<stop  offset="0.4742" style="stop-color:#A92FFB"/>
			<stop  offset="0.5875" style="stop-color:#891CFB"/>
			<stop  offset="0.7262" style="stop-color:#6507FA"/>
			<stop  offset="1" style="stop-color:#3919BB"/>
		</radialGradient>
		<path class="st15" d="M1230.7,775.8L858.4,558.2c-5.9-3.4-8.9-11.8-6.8-18.6l84.2-276.8c2.1-6.9,8.5-9.7,14.4-6.2l372.3,217.6
			c5.9,3.4,8.9,11.8,6.8,18.6L1245,769.6C1243,776.4,1236.5,779.2,1230.7,775.8z"/>
	</g>
	<g class="st16">
		<path class="st10" d="M1230.7,775.8L858.4,558.2c-5.9-3.4-8.9-11.8-6.8-18.6l84.2-276.8c2.1-6.9,8.5-9.7,14.4-6.2l372.3,217.6
			c5.9,3.4,8.9,11.8,6.8,18.6L1245,769.6C1243,776.4,1236.5,779.2,1230.7,775.8z"/>
	</g>
	<path class="st8" d="M1322.4,474.2L950.1,256.6c-3.7-2.1-7.6-1.8-10.5,0.4c1.8-0.1,3.6,0.3,5.4,1.4L1317.3,476
		c5.9,3.4,8.9,11.8,6.8,18.6l-84.2,276.8c-0.8,2.6-2.2,4.6-3.9,5.9c4-0.1,7.6-2.9,9-7.6l84.2-276.8
		C1331.3,486,1328.3,477.6,1322.4,474.2z"/>
	<path class="st13" d="M761.2,1001.8c-5.1,0-10-1.1-13.8-3.3v0l-149.1-87.2c-4-2.3-6.1-5.6-6.1-9.3c0-4.3,3-8.5,8.2-11.5l76.8-44.9
		c9.4-5.5,23.1-6,31.4-1.2l149.1,87.2c4,2.3,6.1,5.6,6.1,9.3c0,4.3-3,8.5-8.2,11.5l-76.8,44.9
		C773.6,1000.3,767.3,1001.8,761.2,1001.8z M694.7,845.5c-5.4,0-11.1,1.3-15.5,3.9l-76.8,44.9c-3.9,2.3-6.1,5.1-6.1,7.8
		c0,2.6,2.2,4.5,4,5.5l149.1,87.2c6.8,3.9,19.1,3.4,27-1.2l76.8-44.9c3.9-2.3,6.1-5.1,6.1-7.8c0-2.6-2.2-4.5-4-5.5l-149.1-87.2
		C703.3,846.4,699.1,845.5,694.7,845.5z"/>
</g>
<g>
	<g>
		<path class="st8" d="M1040.8,401.8l-23-13.5c-2.1-1.2-3.3-4.2-2.6-6.7l0,0c0.7-2.5,3-3.4,5.2-2.2l23,13.5c2.1,1.2,3.3,4.2,2.6,6.7
			l0,0C1045.3,402,1043,403,1040.8,401.8z"/>
		<path class="st8" d="M1095.6,433.8l-33.9-19.8c-2.1-1.2-3.3-4.2-2.6-6.7l0,0c0.7-2.5,3-3.4,5.2-2.2l33.9,19.8
			c2.1,1.2,3.3,4.2,2.6,6.7l0,0C1100.1,434.1,1097.8,435.1,1095.6,433.8z"/>
		<path class="st8" d="M994.4,505.5l-23-13.5c-2.1-1.2-3.3-4.2-2.6-6.7l0,0c0.7-2.5,3-3.4,5.2-2.2l23,13.5c2.1,1.2,3.3,4.2,2.6,6.7
			l0,0C998.9,505.8,996.5,506.8,994.4,505.5z"/>
		<path class="st8" d="M1043.3,534.1l-33.9-19.8c-2.1-1.2-3.3-4.2-2.6-6.7l0,0c0.7-2.5,3-3.4,5.2-2.2l33.9,19.8
			c2.1,1.2,3.3,4.2,2.6,6.7l0,0C1047.7,534.4,1045.4,535.3,1043.3,534.1z"/>
		<path class="st8" d="M971.9,383.3l-14.4-8.4c-2.1-1.2-3.3-4.2-2.6-6.7l0,0c0.7-2.5,3-3.4,5.2-2.2l14.4,8.4
			c2.1,1.2,3.3,4.2,2.6,6.7l0,0C976.3,383.6,974,384.5,971.9,383.3z"/>
		<path class="st8" d="M1015.1,430.4l-43.9-25.7c-2.1-1.2-3.3-4.2-2.6-6.7l0,0c0.7-2.5,3-3.4,5.2-2.2l43.9,25.7
			c2.1,1.2,3.3,4.2,2.6,6.7l0,0C1019.6,430.7,1017.3,431.6,1015.1,430.4z"/>
		<path class="st8" d="M974.6,450.3l-14.4-8.4c-2.1-1.2-3.3-4.2-2.6-6.7l0,0c0.7-2.5,3-3.4,5.2-2.2l14.4,8.4
			c2.1,1.2,3.3,4.2,2.6,6.7h0C979.1,450.6,976.8,451.6,974.6,450.3z"/>
		<path class="st8" d="M1048.6,580.8l-38.4-22.4c-2.1-1.2-3.3-4.2-2.6-6.7l0,0c0.7-2.5,3-3.4,5.2-2.2l38.4,22.4
			c2.1,1.2,3.3,4.2,2.6,6.7l0,0C1053,581.1,1050.7,582.1,1048.6,580.8z"/>
		<path class="st8" d="M958.5,484.5l-9.2-5.4c-2.1-1.2-3.3-4.2-2.6-6.7l0,0c0.7-2.5,3-3.4,5.2-2.2l9.2,5.4c2.1,1.2,3.3,4.2,2.6,6.7
			l0,0C963,484.8,960.6,485.8,958.5,484.5z"/>
		<path class="st8" d="M949.8,523.1l-11.5-6.7c-2.1-1.2-3.3-4.2-2.6-6.7v0c0.7-2.5,3-3.4,5.2-2.2l11.5,6.7c2.1,1.2,3.3,4.2,2.6,6.7
			l0,0C954.2,523.3,951.9,524.3,949.8,523.1z"/>
		<path class="st8" d="M994.4,549.1l-30.2-17.7c-2.1-1.2-3.3-4.2-2.6-6.7l0,0c0.7-2.5,3-3.4,5.2-2.2l30.2,17.7
			c2.1,1.2,3.3,4.2,2.6,6.7l0,0C998.8,549.4,996.5,550.4,994.4,549.1z"/>
		<path class="st8" d="M954.6,547.7L932.8,535c-2.1-1.2-3.3-4.2-2.6-6.7l0,0c0.7-2.5,3-3.4,5.2-2.2l21.7,12.7
			c2.1,1.2,3.3,4.2,2.6,6.7l0,0C959,547.9,956.7,548.9,954.6,547.7z"/>
		<path class="st8" d="M1081.5,600.2l-14-8.2c-2.1-1.2-3.3-4.2-2.6-6.7l0,0c0.7-2.5,3-3.4,5.2-2.2l14,8.2c2.1,1.2,3.3,4.2,2.6,6.7
			l0,0C1086,600.4,1083.6,601.4,1081.5,600.2z"/>
		<path class="st8" d="M1028.1,481.6l-38.4-22.4c-2.1-1.2-3.3-4.2-2.6-6.7l0,0c0.7-2.5,3-3.4,5.2-2.2l38.4,22.4
			c2.1,1.2,3.3,4.2,2.6,6.7l0,0C1032.6,481.9,1030.2,482.8,1028.1,481.6z"/>
	</g>
	<path class="st17" d="M1032.7,462.4l-66.9-39.1c-2.1-1.2-3.3-4.2-2.6-6.7l0,0c0.7-2.5,3-3.4,5.2-2.2l66.9,39.1
		c2.1,1.2,3.3,4.2,2.6,6.7l0,0C1037.1,462.7,1034.8,463.7,1032.7,462.4z"/>
	<path class="st17" d="M993.2,483l-38.4-22.4c-2.1-1.2-3.3-4.2-2.6-6.7l0,0c0.7-2.5,3-3.4,5.2-2.2l38.4,22.4
		c2.1,1.2,3.3,4.2,2.6,6.7l0,0C997.6,483.3,995.3,484.2,993.2,483z"/>
	<path class="st17" d="M1057.2,498.6l-14-8.2c-2.1-1.2-3.3-4.2-2.6-6.7l0,0c0.7-2.5,3-3.4,5.2-2.2l14,8.2c2.1,1.2,3.3,4.2,2.6,6.7
		l0,0C1061.7,498.9,1059.4,499.9,1057.2,498.6z"/>
	<path class="st17" d="M1199.1,494.3l-82.6-48.3c-2.1-1.2-3.3-4.2-2.6-6.7l0,0c0.7-2.5,3-3.4,5.2-2.2l82.6,48.3
		c2.1,1.2,3.3,4.2,2.6,6.7l0,0C1203.6,494.6,1201.3,495.6,1199.1,494.3z"/>
	<path class="st18" d="M990,524.7l-46.2-27c-2.1-1.2-3.3-4.2-2.6-6.7l0,0c0.7-2.5,3-3.4,5.2-2.2l46.2,27c2.1,1.2,3.3,4.2,2.6,6.7
		l0,0C994.4,525,992.1,526,990,524.7z"/>
	<path class="st18" d="M996.9,376.1L963,356.3c-2.1-1.2-3.3-4.2-2.6-6.7l0,0c0.7-2.5,3-3.4,5.2-2.2l33.9,19.8
		c2.1,1.2,3.3,4.2,2.6,6.7l0,0C1001.4,376.4,999.1,377.4,996.9,376.1z"/>
	<path class="st17" d="M947.5,565.3l-39.3-23c-2.1-1.2-3.3-4.2-2.6-6.7l0,0c0.7-2.5,3-3.4,5.2-2.2l39.3,23c2.1,1.2,3.3,4.2,2.6,6.7
		l0,0C951.9,565.6,949.6,566.6,947.5,565.3z"/>
</g>
<g>
	<path class="st8" d="M1208.4,451.3l-16.8-9.8c-1.6-0.9-2.4-3.1-1.9-4.9l0,0c0.5-1.8,2.2-2.5,3.8-1.6l16.8,9.8
		c1.6,0.9,2.4,3.1,1.9,4.9l0,0C1211.7,451.5,1210,452.2,1208.4,451.3z"/>
	<path class="st8" d="M1240.5,470.1l-16.8-9.8c-1.6-0.9-2.4-3.1-1.9-4.9l0,0c0.5-1.8,2.2-2.5,3.8-1.6l16.8,9.8
		c1.6,0.9,2.4,3.1,1.9,4.9l0,0C1243.8,470.3,1242.1,471,1240.5,470.1z"/>
	<path class="st8" d="M1272.6,488.8l-16.8-9.8c-1.6-0.9-2.4-3.1-1.9-4.9l0,0c0.5-1.8,2.2-2.5,3.8-1.6l16.8,9.8
		c1.6,0.9,2.4,3.1,1.9,4.9l0,0C1275.8,489,1274.1,489.7,1272.6,488.8z"/>
	<path class="st18" d="M1288.4,498.1l-0.5-0.3c-1.6-0.9-2.4-3.1-1.9-4.9l0,0c0.5-1.8,2.2-2.5,3.8-1.6l0.5,0.3
		c1.6,0.9,2.4,3.1,1.9,4.9l0,0C1291.6,498.3,1289.9,499,1288.4,498.1z"/>
</g>
<linearGradient id="SVGID_11_" gradientUnits="userSpaceOnUse" x1="268.8622" y1="609.5034" x2="571.4217" y2="609.5034">
	<stop  offset="0" style="stop-color:#E39A65"/>
	<stop  offset="1" style="stop-color:#E95F8D"/>
</linearGradient>
<path class="st19" d="M420.1,697.4c-10.6,0-21.3-2.8-30.8-8.3l0,0l-112.7-65.9c-4.9-2.9-7.8-8-7.8-13.7c0-5.7,2.9-10.8,7.8-13.7
	l112.7-65.9c19-11.1,42.6-11.1,61.6,0l112.7,65.9c4.9,2.9,7.8,8,7.8,13.7c0,5.7-2.9,10.8-7.8,13.7l-112.7,65.9
	C441.4,694.6,430.8,697.4,420.1,697.4z M393,682.6c16.7,9.8,37.5,9.8,54.3,0L560,616.8c2.6-1.5,4.1-4.2,4.1-7.3s-1.5-5.7-4.1-7.3
	l-112.7-65.9c-16.7-9.8-37.5-9.8-54.3,0l-112.7,65.9c-2.6,1.5-4.1,4.2-4.1,7.3c0,3,1.5,5.7,4.1,7.3L393,682.6z"/>
<g>
	<path class="st3" d="M474.3,643.1c-30.2,17.7-79.2,17.7-109.5,0c-30.2-17.7-30.2-46.3,0-64c30.2-17.7,79.2-17.7,109.5,0
		C504.5,596.7,504.5,625.4,474.3,643.1z"/>
	
		<radialGradient id="SVGID_12_" cx="607.7718" cy="641.668" r="165.349" gradientTransform="matrix(3.9408 0 0 3.9903 -2099.4448 -2200.8357)" gradientUnits="userSpaceOnUse">
		<stop  offset="0" style="stop-color:#E39A65"/>
		<stop  offset="0.1528" style="stop-color:#A92FFB"/>
		<stop  offset="0.4087" style="stop-color:#3919BB"/>
		<stop  offset="0.9311" style="stop-color:#3919BB"/>
	</radialGradient>
	<path class="st20" d="M534.3,288.6H313.8l20.5,241.7l0,0c0,13.4,8.8,26.8,26.3,37.1c35,20.5,91.9,20.5,126.9,0
		c17.5-10.2,26.3-23.7,26.3-37.1L534.3,288.6z"/>
	<path class="st13" d="M534.3,288.6H313.8l3.4,39.8c5.1,6.6,11.8,12.8,20.4,18.6c42.1,28.3,111.6,33.7,159.1,13.4l-7.3,176.8
		c-0.3,7.7-2.9,15.2-7.9,21.1c-7.1,8.5-20.9,18.5-47.3,24.2c19.5-1.3,38.4-6.3,53.4-15c17.5-10.2,26.3-23.7,26.3-37.1l16.4-193.8
		l0,0L534.3,288.6z"/>
	<path class="st13" d="M502,334.1c-43,25.2-112.8,25.2-155.9,0c-43-25.2-43-66,0-91.1c43-25.2,112.8-25.2,155.9,0
		C545.1,268.2,545.1,309,502,334.1z"/>
	<path class="st13" d="M491.2,305.1c-37.1,21.7-97.2,21.7-134.3,0s-37.1-56.8,0-78.5c37.1-21.7,97.2-21.7,134.3,0
		S528.3,283.4,491.2,305.1z"/>
	<linearGradient id="SVGID_13_" gradientUnits="userSpaceOnUse" x1="307.2183" y1="277.8742" x2="540.9471" y2="277.8742">
		<stop  offset="0" style="stop-color:#E39A65"/>
		<stop  offset="0.252" style="stop-color:#A92FFB"/>
		<stop  offset="0.5556" style="stop-color:#3919BB"/>
	</linearGradient>
	<path class="st21" d="M540.8,285.5L540.8,285.5l0-0.2c0-0.1,0-0.2,0-0.3l-2.1-21.6l-0.1,0.2c-0.9-16.4-12.1-32.6-33.5-45.1
		c-44.8-26.2-117.3-26.2-162.1,0c-21.9,12.8-33.1,29.5-33.5,46.3l0-0.1l-2,19.3c-0.1,0.5-0.1,1-0.2,1.5l0,0.3l0,0
		c-1.2,18.4,10.2,36.9,34.1,51c45.6,26.7,119.6,26.7,165.3,0C530.9,322.7,542.2,304,540.8,285.5z"/>
	<linearGradient id="SVGID_14_" gradientUnits="userSpaceOnUse" x1="329.1342" y1="265.849" x2="519.0206" y2="265.849">
		<stop  offset="0" style="stop-color:#4F1FEC"/>
		<stop  offset="1" style="stop-color:#A92FFB"/>
	</linearGradient>
	<path class="st22" d="M491.2,305.1c-37.1,21.7-97.2,21.7-134.3,0s-37.1-56.8,0-78.5c37.1-21.7,97.2-21.7,134.3,0
		S528.3,283.4,491.2,305.1z"/>
	<linearGradient id="SVGID_15_" gradientUnits="userSpaceOnUse" x1="324.6291" y1="265.849" x2="514.5156" y2="265.849">
		<stop  offset="0" style="stop-color:#4F1FEC"/>
		<stop  offset="1" style="stop-color:#A92FFB"/>
	</linearGradient>
	<path class="st23" d="M486.7,305.1c-37.1,21.7-97.2,21.7-134.3,0s-37.1-56.8,0-78.5c37.1-21.7,97.2-21.7,134.3,0
		S523.8,283.4,486.7,305.1z"/>
	<path class="st13" d="M368.2,234.9c37.1-21.7,97.2-21.7,134.3,0c0.5,0.3,0.9,0.6,1.3,0.9c-3.6-3.2-7.8-6.3-12.6-9.1
		c-37.1-21.7-97.2-21.7-134.3,0c-36.6,21.4-37,55.9-1.3,77.6C331.8,282.7,336,253.7,368.2,234.9z"/>
	<linearGradient id="SVGID_16_" gradientUnits="userSpaceOnUse" x1="329.1499" y1="240.5065" x2="568.5644" y2="240.5065">
		<stop  offset="0" style="stop-color:#131060"/>
		<stop  offset="0.1857" style="stop-color:#141062"/>
		<stop  offset="0.2823" style="stop-color:#19106A"/>
		<stop  offset="0.3584" style="stop-color:#221078"/>
		<stop  offset="0.4238" style="stop-color:#2E0F8B"/>
		<stop  offset="0.4823" style="stop-color:#3E0FA3"/>
		<stop  offset="0.5359" style="stop-color:#510EC2"/>
		<stop  offset="0.5847" style="stop-color:#680DE5"/>
		<stop  offset="0.6071" style="stop-color:#740DF8"/>
		<stop  offset="0.6179" style="stop-color:#7A14F0"/>
		<stop  offset="0.6826" style="stop-color:#9B3CC3"/>
		<stop  offset="0.7477" style="stop-color:#B75D9D"/>
		<stop  offset="0.8123" style="stop-color:#CC7680"/>
		<stop  offset="0.8762" style="stop-color:#DC886C"/>
		<stop  offset="0.9391" style="stop-color:#E5935F"/>
		<stop  offset="1" style="stop-color:#E8975B"/>
	</linearGradient>
	<path class="st24" d="M356.9,236.2c37.1-21.7,97.2-21.7,134.3,0c16.4,9.6,25.6,21.9,27.4,34.4c2.3-15.8-6.8-32-27.4-44.1
		c-37.1-21.7-97.2-21.7-134.3,0c-20.6,12.1-29.8,28.3-27.4,44.1C331.4,258.1,340.5,245.8,356.9,236.2z"/>
	
		<radialGradient id="SVGID_17_" cx="603.2954" cy="604.4045" r="108.1645" gradientTransform="matrix(3.9408 0 0 3.9903 -2099.4448 -2200.8357)" gradientUnits="userSpaceOnUse">
		<stop  offset="0" style="stop-color:#E39A65"/>
		<stop  offset="0.252" style="stop-color:#A92FFB"/>
		<stop  offset="0.7357" style="stop-color:#3919BB"/>
	</radialGradient>
	<path class="st25" d="M505.8,219c-44.7-26.7-117.5-27.3-162.7-1.5s-45.5,68.4-0.8,95.1C387,339.3,459.9,340,505,314.1
		C550.1,288.3,550.5,245.7,505.8,219z M491.2,305.1c-12.4,7.2-27.4,12-43.2,14.4l-1.7-5.7c-0.7-2.3-2.8-3.9-5.2-3.9H407
		c-2.4,0-4.5,1.6-5.2,3.9l-1.7,5.7c-15.8-2.4-30.8-7.2-43.2-14.4c-37.1-21.7-37.1-56.8,0-78.5c37.1-21.7,97.2-21.7,134.3,0
		C528.3,248.3,528.3,283.4,491.2,305.1z"/>
	<g>
		<path class="st8" d="M491.2,222.5c-37.1-21.7-97.2-21.7-134.3,0c-19.4,11.4-28.7,26.4-27.7,41.3c0.9-13.5,10.1-26.9,27.7-37.2
			c37.1-21.7,97.2-21.7,134.3,0c17.6,10.3,26.9,23.7,27.7,37.2C519.9,248.9,510.6,233.9,491.2,222.5z"/>
		<path class="st8" d="M505,310c-45.1,25.9-118,25.2-162.7-1.5c-21.3-12.7-32.3-29-33.2-45.4c-0.9,17.7,10.2,35.7,33.2,49.5
			C387,339.3,459.9,340,505,314.1c23.7-13.6,35-31.7,34-49.7C538.2,281,526.9,297.5,505,310z"/>
	</g>
	<path class="st26" d="M436.2,322.5H412c-0.4,0-0.7-0.3-0.7-0.7v-4.3c0-0.4,0.3-0.7,0.7-0.7h24.2c0.4,0,0.7,0.3,0.7,0.7v4.3
		C436.8,322.2,436.5,322.5,436.2,322.5z"/>
	<linearGradient id="SVGID_18_" gradientUnits="userSpaceOnUse" x1="409.0499" y1="318.745" x2="442.1711" y2="318.745">
		<stop  offset="0" style="stop-color:#131060"/>
		<stop  offset="0.1857" style="stop-color:#141062"/>
		<stop  offset="0.2823" style="stop-color:#19106A"/>
		<stop  offset="0.3584" style="stop-color:#221078"/>
		<stop  offset="0.4238" style="stop-color:#2E0F8B"/>
		<stop  offset="0.4823" style="stop-color:#3E0FA3"/>
		<stop  offset="0.5359" style="stop-color:#510EC2"/>
		<stop  offset="0.5847" style="stop-color:#680DE5"/>
		<stop  offset="0.6071" style="stop-color:#740DF8"/>
		<stop  offset="0.6179" style="stop-color:#7A14F0"/>
		<stop  offset="0.6826" style="stop-color:#9B3CC3"/>
		<stop  offset="0.7477" style="stop-color:#B75D9D"/>
		<stop  offset="0.8123" style="stop-color:#CC7680"/>
		<stop  offset="0.8762" style="stop-color:#DC886C"/>
		<stop  offset="0.9391" style="stop-color:#E5935F"/>
		<stop  offset="1" style="stop-color:#E8975B"/>
	</linearGradient>
	<path class="st27" d="M434.3,316.9h-20.4c-1.4,0-2.6,1.2-2.6,2.6v0.4c0,0.2,0.1,0.5,0.1,0.7c0.3-1.1,1.3-1.9,2.4-1.9h20.4
		c1.2,0,2.1,0.8,2.4,1.9c0.1-0.2,0.1-0.4,0.1-0.7v-0.4C436.8,318.1,435.7,316.9,434.3,316.9z"/>
	<g>
		<path class="st17" d="M427.2,505.4c-2.5,9.5-12.1,15.2-21.5,12.7c-9.4-2.5-15-12.3-12.5-21.8c2.5-9.5,11.4-12.2,20.8-9.7
			C423.3,489.1,429.7,495.9,427.2,505.4z"/>
		<path class="st17" d="M441.1,486.6c-3.5,3.5-8.1,3.1-11.1-0.1c-3-3.1-3.4-7.7,0.2-11.2c3.5-3.5,10.3-5.2,13.3-2.1
			C446.5,476.3,444.6,483.1,441.1,486.6z"/>
		<path class="st17" d="M422.6,471.7c-0.9,4.9-4.8,7.2-9.1,6.5c-4.2-0.8-7.2-4.3-6.3-9.2s5.4-10.3,9.6-9.6
			C421.1,460.2,423.5,466.8,422.6,471.7z"/>
		<path class="st17" d="M399.9,469.4c1.9,4.6-0.2,8.7-4.2,10.4c-4,1.7-8.3,0.3-10.2-4.4c-1.9-4.6-0.9-11.6,3-13.3
			C392.5,460.5,398.1,464.8,399.9,469.4z"/>
	</g>
</g>
<path class="st28" d="M431.3,319.7c0,0,61.6-20.9,36.7-92.6c-25-71.7-73.5-93.6-54-150.9c0,0-30.7,46.4-2,109.3
	c28.7,62.8,35,55.6,34.6,85.7c-0.4,35.7-28.9,48.6-28.9,48.6H431.3z"/>
<path class="st28" d="M436.8,86.1c0,0-6.4-42.9,33.3-86.1c0,0-35.1,79.5-23.6,118.7C446.5,118.7,437.2,93.8,436.8,86.1z"/>
</svg>
