<?xml version="1.0" encoding="utf-8"?>
<!-- Generator: Adobe Illustrator 21.0.0, SVG Export Plug-In . SVG Version: 6.00 Build 0)  -->
<svg version="1.1" id="Layer_1" xmlns="http://www.w3.org/2000/svg" xmlns:xlink="http://www.w3.org/1999/xlink" x="0px" y="0px"
	 viewBox="0 0 1728 1296" style="enable-background:new 0 0 1728 1296;" xml:space="preserve">
<style type="text/css">
	.st0{fill:url(#SVGID_1_);}
	.st1{fill:url(#SVGID_2_);}
	.st2{fill:url(#SVGID_3_);}
	.st3{opacity:0.6;fill:#020230;}
	.st4{fill:url(#SVGID_4_);}
	.st5{fill:url(#SVGID_5_);}
	.st6{fill:url(#SVGID_6_);}
	.st7{fill:url(#SVGID_7_);}
	.st8{fill:#FFFFFF;}
	.st9{opacity:0.4;}
	.st10{fill:#06033E;}
	.st11{fill:url(#SVGID_8_);}
	.st12{fill:url(#SVGID_9_);}
	.st13{opacity:0.4;fill:#06033E;}
	.st14{opacity:0.5;fill:#06033E;}
	.st15{fill:url(#SVGID_10_);}
	.st16{opacity:0.5;}
	.st17{fill:#E8975B;}
	.st18{fill:#F8359E;}
	.st19{fill:url(#SVGID_11_);}
	.st20{fill:url(#SVGID_12_);}
	.st21{fill:url(#SVGID_13_);}
	.st22{fill:url(#SVGID_14_);}
	.st23{fill:url(#SVGID_15_);}
	.st24{fill:url(#SVGID_16_);}
	.st25{fill:url(#SVGID_17_);}
	.st26{fill:#0C0A78;}
	.st27{fill:url(#SVGID_18_);}
	.st28{opacity:0.5;fill:#FFFFFF;}
</style>
<linearGradient id="SVGID_1_" gradientUnits="userSpaceOnUse" x1="1385.45" y1="883.9185" x2="1479.3705" y2="883.9185">
	<stop  offset="0" style="stop-color:#E39A65"/>
	<stop  offset="1" style="stop-color:#E95F8D"/>
</linearGradient>
<path class="st0" d="M1432.4,911.5c-3.5,0-6.9-0.9-10-2.7l-33.8-19.5c-2-1.1-3.1-3.2-3.1-5.4c0-2.3,1.2-4.3,3.1-5.4l33.8-19.5
	c6.2-3.6,13.9-3.6,20.1,0l33.8,19.5c2,1.1,3.1,3.2,3.1,5.4c0,2.3-1.2,4.3-3.1,5.4l-33.8,19.5
	C1439.3,910.6,1435.9,911.5,1432.4,911.5z M1432.4,861.7c-2.5,0-5.1,0.7-7.3,2l-33.8,19.5c-0.4,0.2-0.5,0.6-0.5,0.8
	c0,0.2,0.1,0.6,0.5,0.8l33.8,19.5c0,0,0,0,0,0c4.5,2.6,10.2,2.6,14.7,0l33.8-19.5c0.4-0.2,0.4-0.6,0.4-0.8c0-0.2-0.1-0.6-0.4-0.8
	l-33.8-19.5C1437.5,862.3,1434.9,861.7,1432.4,861.7z"/>
<linearGradient id="SVGID_2_" gradientUnits="userSpaceOnUse" x1="1256.8539" y1="755.2023" x2="1414.6157" y2="755.2023">
	<stop  offset="0" style="stop-color:#E39A65"/>
	<stop  offset="1" style="stop-color:#E95F8D"/>
</linearGradient>
<path class="st1" d="M1335.7,800.8c-5.6,0-11.3-1.4-16.3-4.4l-58.2-33.6c-2.8-1.6-4.4-4.5-4.4-7.7c0-3.2,1.7-6.1,4.4-7.7l58.2-33.6
	c10-5.8,22.5-5.8,32.6,0l58.2,33.6c2.8,1.6,4.4,4.5,4.4,7.7c0,3.2-1.7,6.1-4.4,7.7l-58.2,33.6C1347,799.3,1341.4,800.8,1335.7,800.8
	z M1322.1,791.8c8.4,4.8,18.8,4.8,27.2,0l58.2-33.6c1.6-0.9,1.7-2.4,1.7-3c0-0.6-0.2-2.1-1.7-3l-58.2-33.6c-8.4-4.8-18.8-4.8-27.2,0
	l-58.2,33.6c-1.6,0.9-1.7,2.4-1.7,3c0,0.6,0.2,2.1,1.7,3L1322.1,791.8z"/>
<linearGradient id="SVGID_3_" gradientUnits="userSpaceOnUse" x1="216.5328" y1="808.057" x2="374.2943" y2="808.057">
	<stop  offset="0" style="stop-color:#E39A65"/>
	<stop  offset="1" style="stop-color:#E95F8D"/>
</linearGradient>
<path class="st2" d="M295.4,853.7c-5.6,0-11.3-1.4-16.3-4.4L221,815.7c-2.8-1.6-4.4-4.5-4.4-7.7c0-3.2,1.7-6.1,4.4-7.7l58.2-33.6
	c10-5.8,22.5-5.8,32.6,0l58.2,33.6c2.8,1.6,4.4,4.5,4.4,7.7c0,3.2-1.7,6.1-4.4,7.7l-58.2,33.6C306.7,852.2,301,853.7,295.4,853.7z
	 M295.4,767.8c-4.7,0-9.4,1.2-13.6,3.6L223.6,805c-1.6,0.9-1.7,2.4-1.7,3c0,0.6,0.2,2.1,1.7,3l58.2,33.6l0,0
	c8.4,4.8,18.8,4.8,27.2,0l58.2-33.6c1.6-0.9,1.7-2.4,1.7-3c0-0.6-0.2-2.1-1.7-3L309,771.5C304.8,769,300.1,767.8,295.4,767.8z"/>
<g>
	<path class="st3" d="M884.5,1000.2L468.5,760c-6.1-3.5-5.3-9.6,1.7-13.7l267-154.1c7-4,17.6-4.5,23.7-1l416,240.2
		c6.1,3.5,5.3,9.6-1.7,13.7l-267,154.1C901.2,1003.2,890.6,1003.7,884.5,1000.2z"/>
	<linearGradient id="SVGID_4_" gradientUnits="userSpaceOnUse" x1="400.2031" y1="797.9375" x2="1242.1953" y2="797.9375">
		<stop  offset="0" style="stop-color:#E39A65"/>
		<stop  offset="1" style="stop-color:#E95F8D"/>
	</linearGradient>
	<path class="st4" d="M894,1043.5c-4.9,0-9.5-1-13.1-3.1h0L406.2,766.4c-3.9-2.2-6-5.5-6-9.1c0-4.2,2.9-8.2,7.9-11.1l323.6-189.6
		c8.9-5.1,21.9-5.6,29.7-1.1l474.7,274.1c3.9,2.2,6,5.5,6,9.1c0,4.2-2.9,8.2-8,11.1l-323.6,189.6
		C905.8,1042.1,899.8,1043.5,894,1043.5z M748.4,557.7c-4.9,0-10,1.2-14,3.4L410.8,750.8c-3.3,1.9-5.3,4.3-5.3,6.5
		c0,2.1,1.8,3.6,3.3,4.4l474.7,274.1c0,0,0,0,0,0c6.1,3.5,17.2,3,24.3-1.1l323.6-189.6c3.3-1.9,5.3-4.3,5.3-6.5
		c0-2.1-1.8-3.6-3.3-4.4L758.8,560.1C756.1,558.5,752.3,557.7,748.4,557.7z"/>
	
		<radialGradient id="SVGID_5_" cx="752.4459" cy="549.6072" r="223.2961" gradientTransform="matrix(2.88 0 0 2.88 -1301.76 -1408.3199)" gradientUnits="userSpaceOnUse">
		<stop  offset="0" style="stop-color:#E39A65"/>
		<stop  offset="0.4742" style="stop-color:#A92FFB"/>
		<stop  offset="0.5947" style="stop-color:#891CFB"/>
		<stop  offset="0.7421" style="stop-color:#6507FA"/>
		<stop  offset="0.8016" style="stop-color:#0D0C6F"/>
	</radialGradient>
	<path class="st5" d="M1287.3,428.8L873,189.6c-2.8-1.6-5.8-2-8.5-1.2v0l0,0c0,0,0,0,0,0l-7.7,2.7l2.7,0.6c-1.1,1.3-2,2.9-2.5,4.7
		l-93.7,304.2c-2.3,7.5,1.1,16.7,7.6,20.5l414.3,239.2c1,0.6,2,1,3,1.2l-1,2.2l7.3-2.6l0,0c3-1.2,5.5-3.9,6.7-7.7l93.7-304.2
		C1297.2,441.7,1293.8,432.5,1287.3,428.8z"/>
	
		<radialGradient id="SVGID_6_" cx="615.8732" cy="728.9302" r="244.1723" gradientTransform="matrix(2.88 0 0 2.88 -1301.76 -1408.3199)" gradientUnits="userSpaceOnUse">
		<stop  offset="0" style="stop-color:#E39A65"/>
		<stop  offset="0.4742" style="stop-color:#A92FFB"/>
		<stop  offset="0.5679" style="stop-color:#891CFB"/>
		<stop  offset="0.6825" style="stop-color:#6507FA"/>
		<stop  offset="0.7381" style="stop-color:#0D0C6F"/>
	</radialGradient>
	<path class="st6" d="M1170.4,771.7l0.1,0.2L761.3,535.6c-6-3.5-16.5-3-23.5,1L473.4,689.2l-8.8-3.4l2.5,12.4l0,0
		c0.3,1.9,1.6,3.6,4,5l413,238.5c6,3.5,16.5,3,23.5-1l265.1-153c3.3-1.9,5.2-4.2,5.6-6.5l0,0l2.5-12L1170.4,771.7z"/>
	
		<radialGradient id="SVGID_7_" cx="638.3305" cy="679.9207" r="218.96" gradientTransform="matrix(2.88 0 0 2.88 -1301.76 -1408.3199)" gradientUnits="userSpaceOnUse">
		<stop  offset="0" style="stop-color:#E39A65"/>
		<stop  offset="0.4742" style="stop-color:#A92FFB"/>
		<stop  offset="0.5875" style="stop-color:#891CFB"/>
		<stop  offset="0.7262" style="stop-color:#6507FA"/>
		<stop  offset="1" style="stop-color:#3919BB"/>
	</radialGradient>
	<path class="st7" d="M884.5,930.7l-416-240.2c-6.1-3.5-5.3-9.6,1.7-13.7l267-154.1c7-4,17.6-4.5,23.7-1l416,240.2
		c6.1,3.5,5.3,9.6-1.7,13.7l-267,154.1C901.2,933.8,890.6,934.2,884.5,930.7z"/>
	<path class="st8" d="M1175.1,772.4l-267,154.1c-7,4-17.6,4.5-23.7,1l-416-240.2c-2.1-1.2-3.3-2.7-3.8-4.3c-0.8,2.8,0.4,5.6,3.8,7.6
		l416,240.2c6.1,3.5,16.7,3.1,23.7-1l267-154.1c4.6-2.7,6.5-6.2,5.5-9.3C1180,768.4,1178.2,770.6,1175.1,772.4z"/>
	<g class="st9">
		<path class="st10" d="M667,651.6l-14-8.1c-1.1-0.7-1-1.8,0.3-2.5l16.6-9.6c1.3-0.8,3.3-0.8,4.4-0.2l14,8.1c1.1,0.7,1,1.8-0.3,2.5
			l-16.6,9.6C670.1,652.2,668.1,652.3,667,651.6z"/>
		<path class="st10" d="M688.6,664.1l-14-8.1c-1.1-0.7-1-1.8,0.3-2.5l16.6-9.6c1.3-0.8,3.3-0.8,4.4-0.2l14,8.1
			c1.1,0.7,1,1.8-0.3,2.5l-16.6,9.6C691.7,664.7,689.8,664.8,688.6,664.1z"/>
		<path class="st10" d="M710.3,676.6l-14-8.1c-1.1-0.7-1-1.8,0.3-2.5l16.6-9.6c1.3-0.8,3.3-0.8,4.4-0.2l14,8.1
			c1.1,0.7,1,1.8-0.3,2.5l-16.6,9.6C713.4,677.2,711.5,677.3,710.3,676.6z"/>
		<path class="st10" d="M740.3,666.3l-14-8.1c-1.1-0.7-1-1.8,0.3-2.5l13.9-8c1.3-0.8,3.3-0.8,4.4-0.2l14,8.1c1.1,0.7,1,1.8-0.3,2.5
			l-13.9,8C743.4,666.9,741.5,667,740.3,666.3z"/>
		<path class="st10" d="M762,678.8l-14-8.1c-1.1-0.7-1-1.8,0.3-2.5l13.9-8c1.3-0.8,3.3-0.8,4.4-0.2l14,8.1c1.1,0.7,1,1.8-0.3,2.5
			l-13.9,8C765.1,679.4,763.1,679.5,762,678.8z"/>
		<path class="st10" d="M783.7,691.3l-14-8.1c-1.1-0.7-1-1.8,0.3-2.5l13.9-8c1.3-0.8,3.3-0.8,4.4-0.2l14,8.1c1.1,0.7,1,1.8-0.3,2.5
			l-13.9,8C786.8,691.9,784.8,692,783.7,691.3z"/>
		<path class="st10" d="M805.4,703.9l-14-8.1c-1.1-0.7-1-1.8,0.3-2.5l13.9-8c1.3-0.8,3.3-0.8,4.4-0.2l14,8.1c1.1,0.7,1,1.8-0.3,2.5
			l-13.9,8C808.5,704.4,806.5,704.5,805.4,703.9z"/>
		<path class="st10" d="M827.1,716.4l-14-8.1c-1.1-0.7-1-1.8,0.3-2.5l13.9-8c1.3-0.8,3.3-0.8,4.4-0.2l14,8.1c1.1,0.7,1,1.8-0.3,2.5
			l-13.9,8C830.2,717,828.2,717,827.1,716.4z"/>
		<path class="st10" d="M848.8,728.9l-14-8.1c-1.1-0.7-1-1.8,0.3-2.5l13.9-8c1.3-0.8,3.3-0.8,4.4-0.2l14,8.1c1.1,0.7,1,1.8-0.3,2.5
			l-13.9,8C851.9,729.5,849.9,729.6,848.8,728.9z"/>
		<path class="st10" d="M870.4,741.4l-14-8.1c-1.1-0.7-1-1.8,0.3-2.5l13.9-8c1.3-0.8,3.3-0.8,4.4-0.2l14,8.1c1.1,0.7,1,1.8-0.3,2.5
			l-13.9,8C873.5,742,871.6,742.1,870.4,741.4z"/>
		<path class="st10" d="M892.1,754l-14-8.1c-1.1-0.7-1-1.8,0.3-2.5l13.9-8c1.3-0.8,3.3-0.8,4.4-0.2l14,8.1c1.1,0.7,1,1.8-0.3,2.5
			l-13.9,8C895.2,754.5,893.3,754.6,892.1,754z"/>
		<path class="st10" d="M913.8,766.5l-14-8.1c-1.1-0.7-1-1.8,0.3-2.5l13.9-8c1.3-0.8,3.3-0.8,4.4-0.2l14,8.1c1.1,0.7,1,1.8-0.3,2.5
			l-13.9,8C916.9,767,914.9,767.1,913.8,766.5z"/>
		<path class="st10" d="M935.5,779l-14-8.1c-1.1-0.7-1-1.8,0.3-2.5l13.9-8c1.3-0.8,3.3-0.8,4.4-0.2l14,8.1c1.1,0.7,1,1.8-0.3,2.5
			l-13.9,8C938.6,779.6,936.6,779.6,935.5,779z"/>
		<path class="st10" d="M772.3,660.4l-14-8.1c-1.1-0.7-1-1.8,0.3-2.5l13.9-8c1.3-0.8,3.3-0.8,4.4-0.2l14,8.1c1.1,0.7,1,1.8-0.3,2.5
			l-13.9,8C775.4,660.9,773.4,661,772.3,660.4z"/>
		<path class="st10" d="M750.3,647.7l-14-8.1c-1.1-0.7-1-1.8,0.3-2.5l13.9-8c1.3-0.8,3.3-0.8,4.4-0.2l14,8.1c1.1,0.7,1,1.8-0.3,2.5
			l-13.9,8C753.4,648.2,751.4,648.3,750.3,647.7z"/>
		<path class="st10" d="M728.2,634.9L698,617.5c-1.1-0.7-1-1.8,0.3-2.5l13.9-8c1.3-0.8,3.3-0.8,4.4-0.2l30.2,17.5
			c1.1,0.7,1,1.8-0.3,2.5l-13.9,8C731.3,635.5,729.3,635.6,728.2,634.9z"/>
		<path class="st10" d="M743.6,619.5l-24.5-14.2c-1.1-0.7-1-1.8,0.3-2.5l13.9-8c1.3-0.8,3.3-0.8,4.4-0.2l24.5,14.2
			c1.1,0.7,1,1.8-0.3,2.5l-13.9,8C746.7,620,744.8,620.1,743.6,619.5z"/>
		<path class="st10" d="M794,672.9l-14-8.1c-1.1-0.7-1-1.8,0.3-2.5l13.9-8c1.3-0.8,3.3-0.8,4.4-0.2l14,8.1c1.1,0.7,1,1.8-0.3,2.5
			l-13.9,8C797.1,673.5,795.1,673.5,794,672.9z"/>
		<path class="st10" d="M815.7,685.4l-14-8.1c-1.1-0.7-1-1.8,0.3-2.5l13.9-8c1.3-0.8,3.3-0.8,4.4-0.2l14,8.1c1.1,0.7,1,1.8-0.3,2.5
			l-13.9,8C818.7,686,816.8,686.1,815.7,685.4z"/>
		<path class="st10" d="M837.3,697.9l-14-8.1c-1.1-0.7-1-1.8,0.3-2.5l13.9-8c1.3-0.8,3.3-0.8,4.4-0.2l14,8.1c1.1,0.7,1,1.8-0.3,2.5
			l-13.9,8C840.4,698.5,838.5,698.6,837.3,697.9z"/>
		<path class="st10" d="M859,710.5l-14-8.1c-1.1-0.7-1-1.8,0.3-2.5l13.9-8c1.3-0.8,3.3-0.8,4.4-0.2l14,8.1c1.1,0.7,1,1.8-0.3,2.5
			l-13.9,8C862.1,711,860.2,711.1,859,710.5z"/>
		<path class="st10" d="M880.7,723l-14-8.1c-1.1-0.7-1-1.8,0.3-2.5l13.9-8c1.3-0.8,3.3-0.8,4.4-0.2l14,8.1c1.1,0.7,1,1.8-0.3,2.5
			l-13.9,8C883.8,723.6,881.8,723.6,880.7,723z"/>
		<path class="st10" d="M902.4,735.5l-14-8.1c-1.1-0.7-1-1.8,0.3-2.5l13.9-8c1.3-0.8,3.3-0.8,4.4-0.2l14,8.1c1.1,0.7,1,1.8-0.3,2.5
			l-13.9,8C905.5,736.1,903.5,736.2,902.4,735.5z"/>
		<path class="st10" d="M924.1,748l-14-8.1c-1.1-0.7-1-1.8,0.3-2.5l13.9-8c1.3-0.8,3.3-0.8,4.4-0.2l14,8.1c1.1,0.7,1,1.8-0.3,2.5
			l-13.9,8C927.2,748.6,925.2,748.7,924.1,748z"/>
		<path class="st10" d="M945.8,760.5l-14-8.1c-1.1-0.7-1-1.8,0.3-2.5l13.9-8c1.3-0.8,3.3-0.8,4.4-0.2l14,8.1c1.1,0.7,1,1.8-0.3,2.5
			l-13.9,8C948.9,761.1,946.9,761.2,945.8,760.5z"/>
		<path class="st10" d="M967.5,773.1l-14-8.1c-1.1-0.7-1-1.8,0.3-2.5l13.9-8c1.3-0.8,3.3-0.8,4.4-0.2l14,8.1c1.1,0.7,1,1.8-0.3,2.5
			l-13.9,8C970.6,773.6,968.6,773.7,967.5,773.1z"/>
		<path class="st10" d="M1006,795.3l-30.6-17.7c-1.1-0.7-1-1.8,0.3-2.5l13.9-8c1.3-0.8,3.3-0.8,4.4-0.2l30.6,17.7
			c1.1,0.7,1,1.8-0.3,2.5l-13.9,8C1009.1,795.9,1007.1,796,1006,795.3z"/>
		<path class="st10" d="M1048.2,770.9l-25.9-14.9c-1.1-0.7-1-1.8,0.3-2.5l13.9-8c1.3-0.8,3.3-0.8,4.4-0.2l25.9,14.9
			c1.1,0.7,1,1.8-0.3,2.5l-13.9,8C1051.3,771.5,1049.4,771.6,1048.2,770.9z"/>
		<path class="st10" d="M831.9,670.4l-14-8.1c-1.1-0.7-1-1.8,0.3-2.5l13.9-8c1.3-0.8,3.3-0.8,4.4-0.2l14,8.1c1.1,0.7,1,1.8-0.3,2.5
			l-13.9,8C835,671,833.1,671.1,831.9,670.4z"/>
		<path class="st10" d="M809.7,657.6l-14-8.1c-1.1-0.7-1-1.8,0.3-2.5l13.9-8c1.3-0.8,3.3-0.8,4.4-0.2l14,8.1c1.1,0.7,1,1.8-0.3,2.5
			l-13.9,8C812.8,658.2,810.8,658.3,809.7,657.6z"/>
		<path class="st10" d="M787.5,644.8l-14-8.1c-1.1-0.7-1-1.8,0.3-2.5l13.9-8c1.3-0.8,3.3-0.8,4.4-0.2l14,8.1c1.1,0.7,1,1.8-0.3,2.5
			l-13.9,8C790.6,645.4,788.6,645.4,787.5,644.8z"/>
		<path class="st10" d="M765.3,632l-14-8.1c-1.1-0.7-1-1.8,0.3-2.5l13.9-8c1.3-0.8,3.3-0.8,4.4-0.2l14,8.1c1.1,0.7,1,1.8-0.3,2.5
			l-13.9,8C768.4,632.5,766.4,632.6,765.3,632z"/>
		<path class="st10" d="M853.6,683l-14-8.1c-1.1-0.7-1-1.8,0.3-2.5l13.9-8c1.3-0.8,3.3-0.8,4.4-0.2l14,8.1c1.1,0.7,1,1.8-0.3,2.5
			l-13.9,8C856.7,683.5,854.8,683.6,853.6,683z"/>
		<path class="st10" d="M875.3,695.5l-14-8.1c-1.1-0.7-1-1.8,0.3-2.5l13.9-8c1.3-0.8,3.3-0.8,4.4-0.2l14,8.1c1.1,0.7,1,1.8-0.3,2.5
			l-13.9,8C878.4,696.1,876.4,696.1,875.3,695.5z"/>
		<path class="st10" d="M897,708l-14-8.1c-1.1-0.7-1-1.8,0.3-2.5l13.9-8c1.3-0.8,3.3-0.8,4.4-0.2l14,8.1c1.1,0.7,1,1.8-0.3,2.5
			l-13.9,8C900.1,708.6,898.1,708.7,897,708z"/>
		<path class="st10" d="M918.7,720.5l-14-8.1c-1.1-0.7-1-1.8,0.3-2.5l13.9-8c1.3-0.8,3.3-0.8,4.4-0.2l14,8.1c1.1,0.7,1,1.8-0.3,2.5
			l-13.9,8C921.8,721.1,919.8,721.2,918.7,720.5z"/>
		<path class="st10" d="M940.4,733.1l-14-8.1c-1.1-0.7-1-1.8,0.3-2.5l13.9-8c1.3-0.8,3.3-0.8,4.4-0.2l14,8.1c1.1,0.7,1,1.8-0.3,2.5
			l-13.9,8C943.5,733.6,941.5,733.7,940.4,733.1z"/>
		<path class="st10" d="M962.1,745.6l-14-8.1c-1.1-0.7-1-1.8,0.3-2.5l13.9-8c1.3-0.8,3.3-0.8,4.4-0.2l14,8.1c1.1,0.7,1,1.8-0.3,2.5
			l-13.9,8C965.2,746.1,963.2,746.2,962.1,745.6z"/>
		<path class="st10" d="M983.8,758.1l-14-8.1c-1.1-0.7-1-1.8,0.3-2.5l13.9-8c1.3-0.8,3.3-0.8,4.4-0.2l14,8.1c1.1,0.7,1,1.8-0.3,2.5
			l-13.9,8C986.9,758.7,984.9,758.7,983.8,758.1z"/>
		<path class="st10" d="M1005.4,770.6l-14-8.1c-1.1-0.7-1-1.8,0.3-2.5l13.9-8c1.3-0.8,3.3-0.8,4.4-0.2l14,8.1c1.1,0.7,1,1.8-0.3,2.5
			l-13.9,8C1008.5,771.2,1006.6,771.3,1005.4,770.6z"/>
		<path class="st10" d="M1027.1,783.1l-14-8.1c-1.1-0.7-1-1.8,0.3-2.5l13.9-8c1.3-0.8,3.3-0.8,4.4-0.2l14,8.1c1.1,0.7,1,1.8-0.3,2.5
			l-13.9,8C1030.2,783.7,1028.3,783.8,1027.1,783.1z"/>
		<path class="st10" d="M820.5,639.5l-14-8.1c-1.1-0.7-1-1.8,0.3-2.5l13.9-8c1.3-0.8,3.3-0.8,4.4-0.2l14,8.1c1.1,0.7,1,1.8-0.3,2.5
			l-13.9,8C823.6,640,821.7,640.1,820.5,639.5z"/>
		<path class="st10" d="M798.9,627l-14-8.1c-1.1-0.7-1-1.8,0.3-2.5l13.9-8c1.3-0.8,3.3-0.8,4.4-0.2l14,8.1c1.1,0.7,1,1.8-0.3,2.5
			l-13.9,8C802,627.6,800.1,627.7,798.9,627z"/>
		<path class="st10" d="M777.4,614.6l-14-8.1c-1.1-0.7-1-1.8,0.3-2.5l13.9-8c1.3-0.8,3.3-0.8,4.4-0.2l14,8.1c1.1,0.7,1,1.8-0.3,2.5
			l-13.9,8C780.5,615.1,778.5,615.2,777.4,614.6z"/>
		<path class="st10" d="M755.8,602.1l-14-8.1c-1.1-0.7-1-1.8,0.3-2.5l13.9-8c1.3-0.8,3.3-0.8,4.4-0.2l14,8.1c1.1,0.7,1,1.8-0.3,2.5
			l-13.9,8C758.9,602.7,756.9,602.8,755.8,602.1z"/>
		<path class="st10" d="M778,589.3l-14-8.1c-1.1-0.7-1-1.8,0.3-2.5l4.6-2.7c1.3-0.8,3.3-0.8,4.4-0.2l14,8.1c1.1,0.7,1,1.8-0.3,2.5
			l-4.6,2.7C781.1,589.9,779.1,589.9,778,589.3z"/>
		<path class="st10" d="M806.1,605.5l-14-8.1c-1.1-0.7-1-1.8,0.3-2.5l4.6-2.7c1.3-0.8,3.3-0.8,4.4-0.2l14,8.1c1.1,0.7,1,1.8-0.3,2.5
			l-4.6,2.7C809.2,606.1,807.3,606.2,806.1,605.5z"/>
		<path class="st10" d="M827.6,618l-14-8.1c-1.1-0.7-1-1.8,0.3-2.5l4.6-2.7c1.3-0.8,3.3-0.8,4.4-0.2l14,8.1c1.1,0.7,1,1.8-0.3,2.5
			l-4.6,2.7C830.7,618.5,828.8,618.6,827.6,618z"/>
		<path class="st10" d="M849.1,630.4l-14-8.1c-1.1-0.7-1-1.8,0.3-2.5l4.6-2.7c1.3-0.8,3.3-0.8,4.4-0.2l14,8.1c1.1,0.7,1,1.8-0.3,2.5
			l-4.6,2.7C852.2,630.9,850.2,631,849.1,630.4z"/>
		<path class="st10" d="M870.6,642.8l-14-8.1c-1.1-0.7-1-1.8,0.3-2.5l4.6-2.7c1.3-0.8,3.3-0.8,4.4-0.2l14,8.1c1.1,0.7,1,1.8-0.3,2.5
			l-4.6,2.7C873.7,643.3,871.7,643.4,870.6,642.8z"/>
		<path class="st10" d="M990.6,712l-14-8.1c-1.1-0.7-1-1.8,0.3-2.5l4.6-2.7c1.3-0.8,3.3-0.8,4.4-0.2l14,8.1c1.1,0.7,1,1.8-0.3,2.5
			l-4.6,2.7C993.7,712.6,991.7,712.7,990.6,712z"/>
		<path class="st10" d="M1012.1,724.4l-14-8.1c-1.1-0.7-1-1.8,0.3-2.5l4.6-2.7c1.3-0.8,3.3-0.8,4.4-0.2l14,8.1
			c1.1,0.7,1,1.8-0.3,2.5l-4.6,2.7C1015.2,725,1013.2,725.1,1012.1,724.4z"/>
		<path class="st10" d="M1033.6,736.8l-14-8.1c-1.1-0.7-1-1.8,0.3-2.5l4.6-2.7c1.3-0.8,3.3-0.8,4.4-0.2l14,8.1
			c1.1,0.7,1,1.8-0.3,2.5l-4.6,2.7C1036.7,737.4,1034.7,737.5,1033.6,736.8z"/>
		<path class="st10" d="M1055,749.3l-14-8.1c-1.1-0.7-1-1.8,0.3-2.5l4.6-2.7c1.3-0.8,3.3-0.8,4.4-0.2l14,8.1c1.1,0.7,1,1.8-0.3,2.5
			l-4.6,2.7C1058.1,749.8,1056.2,749.9,1055,749.3z"/>
		<path class="st10" d="M842.2,652l-14-8.1c-1.1-0.7-1-1.8,0.3-2.5l13.9-8c1.3-0.8,3.3-0.8,4.4-0.2l14,8.1c1.1,0.7,1,1.8-0.3,2.5
			l-13.9,8C845.3,652.6,843.3,652.7,842.2,652z"/>
		<path class="st10" d="M863.9,664.5l-14-8.1c-1.1-0.7-1-1.8,0.3-2.5l13.9-8c1.3-0.8,3.3-0.8,4.4-0.2l14,8.1c1.1,0.7,1,1.8-0.3,2.5
			l-13.9,8C867,665.1,865,665.2,863.9,664.5z"/>
		<path class="st10" d="M885.6,677l-14-8.1c-1.1-0.7-1-1.8,0.3-2.5l13.9-8c1.3-0.8,3.3-0.8,4.4-0.2l14,8.1c1.1,0.7,1,1.8-0.3,2.5
			l-13.9,8C888.7,677.6,886.7,677.7,885.6,677z"/>
		<path class="st10" d="M907.3,689.6l-14-8.1c-1.1-0.7-1-1.8,0.3-2.5l13.9-8c1.3-0.8,3.3-0.8,4.4-0.2l14,8.1c1.1,0.7,1,1.8-0.3,2.5
			l-13.9,8C910.4,690.1,908.4,690.2,907.3,689.6z"/>
		<path class="st10" d="M929,702.1l-14-8.1c-1.1-0.7-1-1.8,0.3-2.5l13.9-8c1.3-0.8,3.3-0.8,4.4-0.2l14,8.1c1.1,0.7,1,1.8-0.3,2.5
			l-13.9,8C932.1,702.7,930.1,702.7,929,702.1z"/>
		<path class="st10" d="M950.6,714.6l-14-8.1c-1.1-0.7-1-1.8,0.3-2.5l13.9-8c1.3-0.8,3.3-0.8,4.4-0.2l14,8.1c1.1,0.7,1,1.8-0.3,2.5
			l-13.9,8C953.7,715.2,951.8,715.3,950.6,714.6z"/>
		<path class="st10" d="M972.3,727.1l-14-8.1c-1.1-0.7-1-1.8,0.3-2.5l13.9-8c1.3-0.8,3.3-0.8,4.4-0.2l14,8.1c1.1,0.7,1,1.8-0.3,2.5
			l-13.9,8C975.4,727.7,973.5,727.8,972.3,727.1z"/>
		<path class="st10" d="M994,739.6l-14-8.1c-1.1-0.7-1-1.8,0.3-2.5l13.9-8c1.3-0.8,3.3-0.8,4.4-0.2l14,8.1c1.1,0.7,1,1.8-0.3,2.5
			l-13.9,8C997.1,740.2,995.1,740.3,994,739.6z"/>
		<path class="st10" d="M1015.7,752.2l-14-8.1c-1.1-0.7-1-1.8,0.3-2.5l13.9-8c1.3-0.8,3.3-0.8,4.4-0.2l14,8.1c1.1,0.7,1,1.8-0.3,2.5
			l-13.9,8C1018.8,752.7,1016.8,752.8,1015.7,752.2z"/>
		<path class="st10" d="M718.2,653.5l-41.4-23.9c-1.1-0.7-1-1.8,0.3-2.5l13.9-8c1.3-0.8,3.3-0.8,4.4-0.2l41.4,23.9
			c1.1,0.7,1,1.8-0.3,2.5l-13.9,8C721.3,654.1,719.3,654.2,718.2,653.5z"/>
		<path class="st10" d="M984.7,807.4l-41.4-23.9c-1.1-0.7-1-1.8,0.3-2.5l13.9-8c1.3-0.8,3.3-0.8,4.4-0.2l41.4,23.9
			c1.1,0.7,1,1.8-0.3,2.5l-13.9,8C987.8,807.9,985.8,808,984.7,807.4z"/>
		<path class="st10" d="M897.9,785l-14-8.1c-1.1-0.7-1-1.8,0.3-2.5l16.6-9.6c1.3-0.8,3.3-0.8,4.4-0.2l14,8.1c1.1,0.7,1,1.8-0.3,2.5
			l-16.6,9.6C901,785.5,899.1,785.6,897.9,785z"/>
		<path class="st10" d="M740.4,694l-22.5-13c-1.1-0.7-1-1.8,0.3-2.5l16.6-9.6c1.3-0.8,3.3-0.8,4.4-0.2l22.5,13
			c1.1,0.7,1,1.8-0.3,2.5l-16.6,9.6C743.5,694.6,741.6,694.7,740.4,694z"/>
		<path class="st10" d="M877,772.9l-22.5-13c-1.1-0.7-1-1.8,0.3-2.5l16.6-9.6c1.3-0.8,3.3-0.8,4.4-0.2l22.5,13
			c1.1,0.7,1,1.8-0.3,2.5l-16.6,9.6C880.1,773.5,878.2,773.5,877,772.9z"/>
		<path class="st10" d="M771.7,712.1l-22.5-13c-1.1-0.7-1-1.8,0.3-2.5l16.6-9.6c1.3-0.8,3.3-0.8,4.4-0.2l22.5,13
			c1.1,0.7,1,1.8-0.3,2.5l-16.6,9.6C774.8,712.7,772.8,712.7,771.7,712.1z"/>
		<path class="st10" d="M770.7,686.9l97.6,56.4c1.2,0.7,1.2,1.8,0,2.5l-16.9,9.8c-1.2,0.7-3.2,0.7-4.4,0l-97.6-56.4L770.7,686.9z"/>
		<path class="st10" d="M958.5,807.7l15.6,9c0.9,0.5,0.8,1.5-0.3,2.1l-6.8,3.9c-1.1,0.6-2.7,0.7-3.6,0.1l-15.6-9
			c-0.9-0.5-0.8-1.5,0.3-2.1l6.8-3.9C956,807.2,957.6,807.1,958.5,807.7z"/>
		<path class="st10" d="M936.7,795l15.6,9c0.9,0.5,0.8,1.5-0.3,2.1l-6.8,3.9c-1.1,0.6-2.7,0.7-3.6,0.1l-15.6-9
			c-0.9-0.5-0.8-1.5,0.3-2.1l6.8-3.9C934.1,794.6,935.7,794.5,936.7,795z"/>
		<path class="st10" d="M915,782.5l15.6,9c0.9,0.5,0.8,1.5-0.3,2.1l-6.8,3.9c-1.1,0.6-2.7,0.7-3.6,0.1l-15.6-9
			c-0.9-0.5-0.8-1.5,0.3-2.1l6.8-3.9C912.4,782,914.1,782,915,782.5z"/>
		<path class="st10" d="M948.6,788.1l15.6,9c0.9,0.5,0.8,1.5-0.3,2.1l-6.8,3.9c-1.1,0.6-2.7,0.7-3.6,0.1l-15.6-9
			c-0.9-0.5-0.8-1.5,0.3-2.1l6.8-3.9C946.1,787.7,947.7,787.6,948.6,788.1z"/>
	</g>
	<g class="st9">
		<path class="st10" d="M667,651.6l-14-8.1c-1.1-0.7-1-1.8,0.3-2.5l16.6-9.6c1.3-0.8,3.3-0.8,4.4-0.2l14,8.1c1.1,0.7,1,1.8-0.3,2.5
			l-16.6,9.6C670.1,652.2,668.1,652.3,667,651.6z"/>
		<path class="st10" d="M688.6,664.1l-14-8.1c-1.1-0.7-1-1.8,0.3-2.5l16.6-9.6c1.3-0.8,3.3-0.8,4.4-0.2l14,8.1
			c1.1,0.7,1,1.8-0.3,2.5l-16.6,9.6C691.7,664.7,689.8,664.8,688.6,664.1z"/>
		<path class="st10" d="M710.3,676.6l-14-8.1c-1.1-0.7-1-1.8,0.3-2.5l16.6-9.6c1.3-0.8,3.3-0.8,4.4-0.2l14,8.1
			c1.1,0.7,1,1.8-0.3,2.5l-16.6,9.6C713.4,677.2,711.5,677.3,710.3,676.6z"/>
		<path class="st10" d="M740.3,666.3l-14-8.1c-1.1-0.7-1-1.8,0.3-2.5l13.9-8c1.3-0.8,3.3-0.8,4.4-0.2l14,8.1c1.1,0.7,1,1.8-0.3,2.5
			l-13.9,8C743.4,666.9,741.5,667,740.3,666.3z"/>
		<path class="st10" d="M762,678.8l-14-8.1c-1.1-0.7-1-1.8,0.3-2.5l13.9-8c1.3-0.8,3.3-0.8,4.4-0.2l14,8.1c1.1,0.7,1,1.8-0.3,2.5
			l-13.9,8C765.1,679.4,763.1,679.5,762,678.8z"/>
		<path class="st10" d="M783.7,691.3l-14-8.1c-1.1-0.7-1-1.8,0.3-2.5l13.9-8c1.3-0.8,3.3-0.8,4.4-0.2l14,8.1c1.1,0.7,1,1.8-0.3,2.5
			l-13.9,8C786.8,691.9,784.8,692,783.7,691.3z"/>
		<path class="st10" d="M805.4,703.9l-14-8.1c-1.1-0.7-1-1.8,0.3-2.5l13.9-8c1.3-0.8,3.3-0.8,4.4-0.2l14,8.1c1.1,0.7,1,1.8-0.3,2.5
			l-13.9,8C808.5,704.4,806.5,704.5,805.4,703.9z"/>
		<path class="st10" d="M827.1,716.4l-14-8.1c-1.1-0.7-1-1.8,0.3-2.5l13.9-8c1.3-0.8,3.3-0.8,4.4-0.2l14,8.1c1.1,0.7,1,1.8-0.3,2.5
			l-13.9,8C830.2,717,828.2,717,827.1,716.4z"/>
		<path class="st10" d="M848.8,728.9l-14-8.1c-1.1-0.7-1-1.8,0.3-2.5l13.9-8c1.3-0.8,3.3-0.8,4.4-0.2l14,8.1c1.1,0.7,1,1.8-0.3,2.5
			l-13.9,8C851.9,729.5,849.9,729.6,848.8,728.9z"/>
		<path class="st10" d="M870.4,741.4l-14-8.1c-1.1-0.7-1-1.8,0.3-2.5l13.9-8c1.3-0.8,3.3-0.8,4.4-0.2l14,8.1c1.1,0.7,1,1.8-0.3,2.5
			l-13.9,8C873.5,742,871.6,742.1,870.4,741.4z"/>
		<path class="st10" d="M892.1,754l-14-8.1c-1.1-0.7-1-1.8,0.3-2.5l13.9-8c1.3-0.8,3.3-0.8,4.4-0.2l14,8.1c1.1,0.7,1,1.8-0.3,2.5
			l-13.9,8C895.2,754.5,893.3,754.6,892.1,754z"/>
		<path class="st10" d="M913.8,766.5l-14-8.1c-1.1-0.7-1-1.8,0.3-2.5l13.9-8c1.3-0.8,3.3-0.8,4.4-0.2l14,8.1c1.1,0.7,1,1.8-0.3,2.5
			l-13.9,8C916.9,767,914.9,767.1,913.8,766.5z"/>
		<path class="st10" d="M935.5,779l-14-8.1c-1.1-0.7-1-1.8,0.3-2.5l13.9-8c1.3-0.8,3.3-0.8,4.4-0.2l14,8.1c1.1,0.7,1,1.8-0.3,2.5
			l-13.9,8C938.6,779.6,936.6,779.6,935.5,779z"/>
		<path class="st10" d="M772.3,660.4l-14-8.1c-1.1-0.7-1-1.8,0.3-2.5l13.9-8c1.3-0.8,3.3-0.8,4.4-0.2l14,8.1c1.1,0.7,1,1.8-0.3,2.5
			l-13.9,8C775.4,660.9,773.4,661,772.3,660.4z"/>
		<path class="st10" d="M750.3,647.7l-14-8.1c-1.1-0.7-1-1.8,0.3-2.5l13.9-8c1.3-0.8,3.3-0.8,4.4-0.2l14,8.1c1.1,0.7,1,1.8-0.3,2.5
			l-13.9,8C753.4,648.2,751.4,648.3,750.3,647.7z"/>
		<path class="st10" d="M728.2,634.9L698,617.5c-1.1-0.7-1-1.8,0.3-2.5l13.9-8c1.3-0.8,3.3-0.8,4.4-0.2l30.2,17.5
			c1.1,0.7,1,1.8-0.3,2.5l-13.9,8C731.3,635.5,729.3,635.6,728.2,634.9z"/>
		<path class="st10" d="M743.6,619.5l-24.5-14.2c-1.1-0.7-1-1.8,0.3-2.5l13.9-8c1.3-0.8,3.3-0.8,4.4-0.2l24.5,14.2
			c1.1,0.7,1,1.8-0.3,2.5l-13.9,8C746.7,620,744.8,620.1,743.6,619.5z"/>
		<path class="st10" d="M794,672.9l-14-8.1c-1.1-0.7-1-1.8,0.3-2.5l13.9-8c1.3-0.8,3.3-0.8,4.4-0.2l14,8.1c1.1,0.7,1,1.8-0.3,2.5
			l-13.9,8C797.1,673.5,795.1,673.5,794,672.9z"/>
		<path class="st10" d="M815.7,685.4l-14-8.1c-1.1-0.7-1-1.8,0.3-2.5l13.9-8c1.3-0.8,3.3-0.8,4.4-0.2l14,8.1c1.1,0.7,1,1.8-0.3,2.5
			l-13.9,8C818.7,686,816.8,686.1,815.7,685.4z"/>
		<path class="st10" d="M837.3,697.9l-14-8.1c-1.1-0.7-1-1.8,0.3-2.5l13.9-8c1.3-0.8,3.3-0.8,4.4-0.2l14,8.1c1.1,0.7,1,1.8-0.3,2.5
			l-13.9,8C840.4,698.5,838.5,698.6,837.3,697.9z"/>
		<path class="st10" d="M859,710.5l-14-8.1c-1.1-0.7-1-1.8,0.3-2.5l13.9-8c1.3-0.8,3.3-0.8,4.4-0.2l14,8.1c1.1,0.7,1,1.8-0.3,2.5
			l-13.9,8C862.1,711,860.2,711.1,859,710.5z"/>
		<path class="st10" d="M880.7,723l-14-8.1c-1.1-0.7-1-1.8,0.3-2.5l13.9-8c1.3-0.8,3.3-0.8,4.4-0.2l14,8.1c1.1,0.7,1,1.8-0.3,2.5
			l-13.9,8C883.8,723.6,881.8,723.6,880.7,723z"/>
		<path class="st10" d="M902.4,735.5l-14-8.1c-1.1-0.7-1-1.8,0.3-2.5l13.9-8c1.3-0.8,3.3-0.8,4.4-0.2l14,8.1c1.1,0.7,1,1.8-0.3,2.5
			l-13.9,8C905.5,736.1,903.5,736.2,902.4,735.5z"/>
		<path class="st10" d="M924.1,748l-14-8.1c-1.1-0.7-1-1.8,0.3-2.5l13.9-8c1.3-0.8,3.3-0.8,4.4-0.2l14,8.1c1.1,0.7,1,1.8-0.3,2.5
			l-13.9,8C927.2,748.6,925.2,748.7,924.1,748z"/>
		<path class="st10" d="M945.8,760.5l-14-8.1c-1.1-0.7-1-1.8,0.3-2.5l13.9-8c1.3-0.8,3.3-0.8,4.4-0.2l14,8.1c1.1,0.7,1,1.8-0.3,2.5
			l-13.9,8C948.9,761.1,946.9,761.2,945.8,760.5z"/>
		<path class="st10" d="M967.5,773.1l-14-8.1c-1.1-0.7-1-1.8,0.3-2.5l13.9-8c1.3-0.8,3.3-0.8,4.4-0.2l14,8.1c1.1,0.7,1,1.8-0.3,2.5
			l-13.9,8C970.6,773.6,968.6,773.7,967.5,773.1z"/>
		<path class="st10" d="M1006,795.3l-30.6-17.7c-1.1-0.7-1-1.8,0.3-2.5l13.9-8c1.3-0.8,3.3-0.8,4.4-0.2l30.6,17.7
			c1.1,0.7,1,1.8-0.3,2.5l-13.9,8C1009.1,795.9,1007.1,796,1006,795.3z"/>
		<path class="st10" d="M1048.2,770.9l-25.9-14.9c-1.1-0.7-1-1.8,0.3-2.5l13.9-8c1.3-0.8,3.3-0.8,4.4-0.2l25.9,14.9
			c1.1,0.7,1,1.8-0.3,2.5l-13.9,8C1051.3,771.5,1049.4,771.6,1048.2,770.9z"/>
		<path class="st10" d="M831.9,670.4l-14-8.1c-1.1-0.7-1-1.8,0.3-2.5l13.9-8c1.3-0.8,3.3-0.8,4.4-0.2l14,8.1c1.1,0.7,1,1.8-0.3,2.5
			l-13.9,8C835,671,833.1,671.1,831.9,670.4z"/>
		<path class="st10" d="M809.7,657.6l-14-8.1c-1.1-0.7-1-1.8,0.3-2.5l13.9-8c1.3-0.8,3.3-0.8,4.4-0.2l14,8.1c1.1,0.7,1,1.8-0.3,2.5
			l-13.9,8C812.8,658.2,810.8,658.3,809.7,657.6z"/>
		<path class="st10" d="M787.5,644.8l-14-8.1c-1.1-0.7-1-1.8,0.3-2.5l13.9-8c1.3-0.8,3.3-0.8,4.4-0.2l14,8.1c1.1,0.7,1,1.8-0.3,2.5
			l-13.9,8C790.6,645.4,788.6,645.4,787.5,644.8z"/>
		<path class="st10" d="M765.3,632l-14-8.1c-1.1-0.7-1-1.8,0.3-2.5l13.9-8c1.3-0.8,3.3-0.8,4.4-0.2l14,8.1c1.1,0.7,1,1.8-0.3,2.5
			l-13.9,8C768.4,632.5,766.4,632.6,765.3,632z"/>
		<path class="st10" d="M853.6,683l-14-8.1c-1.1-0.7-1-1.8,0.3-2.5l13.9-8c1.3-0.8,3.3-0.8,4.4-0.2l14,8.1c1.1,0.7,1,1.8-0.3,2.5
			l-13.9,8C856.7,683.5,854.8,683.6,853.6,683z"/>
		<path class="st10" d="M875.3,695.5l-14-8.1c-1.1-0.7-1-1.8,0.3-2.5l13.9-8c1.3-0.8,3.3-0.8,4.4-0.2l14,8.1c1.1,0.7,1,1.8-0.3,2.5
			l-13.9,8C878.4,696.1,876.4,696.1,875.3,695.5z"/>
		<path class="st10" d="M897,708l-14-8.1c-1.1-0.7-1-1.8,0.3-2.5l13.9-8c1.3-0.8,3.3-0.8,4.4-0.2l14,8.1c1.1,0.7,1,1.8-0.3,2.5
			l-13.9,8C900.1,708.6,898.1,708.7,897,708z"/>
		<path class="st10" d="M918.7,720.5l-14-8.1c-1.1-0.7-1-1.8,0.3-2.5l13.9-8c1.3-0.8,3.3-0.8,4.4-0.2l14,8.1c1.1,0.7,1,1.8-0.3,2.5
			l-13.9,8C921.8,721.1,919.8,721.2,918.7,720.5z"/>
		<path class="st10" d="M940.4,733.1l-14-8.1c-1.1-0.7-1-1.8,0.3-2.5l13.9-8c1.3-0.8,3.3-0.8,4.4-0.2l14,8.1c1.1,0.7,1,1.8-0.3,2.5
			l-13.9,8C943.5,733.6,941.5,733.7,940.4,733.1z"/>
		<path class="st10" d="M962.1,745.6l-14-8.1c-1.1-0.7-1-1.8,0.3-2.5l13.9-8c1.3-0.8,3.3-0.8,4.4-0.2l14,8.1c1.1,0.7,1,1.8-0.3,2.5
			l-13.9,8C965.2,746.1,963.2,746.2,962.1,745.6z"/>
		<path class="st10" d="M983.8,758.1l-14-8.1c-1.1-0.7-1-1.8,0.3-2.5l13.9-8c1.3-0.8,3.3-0.8,4.4-0.2l14,8.1c1.1,0.7,1,1.8-0.3,2.5
			l-13.9,8C986.9,758.7,984.9,758.7,983.8,758.1z"/>
		<path class="st10" d="M1005.4,770.6l-14-8.1c-1.1-0.7-1-1.8,0.3-2.5l13.9-8c1.3-0.8,3.3-0.8,4.4-0.2l14,8.1c1.1,0.7,1,1.8-0.3,2.5
			l-13.9,8C1008.5,771.2,1006.6,771.3,1005.4,770.6z"/>
		<path class="st10" d="M1027.1,783.1l-14-8.1c-1.1-0.7-1-1.8,0.3-2.5l13.9-8c1.3-0.8,3.3-0.8,4.4-0.2l14,8.1c1.1,0.7,1,1.8-0.3,2.5
			l-13.9,8C1030.2,783.7,1028.3,783.8,1027.1,783.1z"/>
		<path class="st10" d="M820.5,639.5l-14-8.1c-1.1-0.7-1-1.8,0.3-2.5l13.9-8c1.3-0.8,3.3-0.8,4.4-0.2l14,8.1c1.1,0.7,1,1.8-0.3,2.5
			l-13.9,8C823.6,640,821.7,640.1,820.5,639.5z"/>
		<path class="st10" d="M798.9,627l-14-8.1c-1.1-0.7-1-1.8,0.3-2.5l13.9-8c1.3-0.8,3.3-0.8,4.4-0.2l14,8.1c1.1,0.7,1,1.8-0.3,2.5
			l-13.9,8C802,627.6,800.1,627.7,798.9,627z"/>
		<path class="st10" d="M777.4,614.6l-14-8.1c-1.1-0.7-1-1.8,0.3-2.5l13.9-8c1.3-0.8,3.3-0.8,4.4-0.2l14,8.1c1.1,0.7,1,1.8-0.3,2.5
			l-13.9,8C780.5,615.1,778.5,615.2,777.4,614.6z"/>
		<path class="st10" d="M755.8,602.1l-14-8.1c-1.1-0.7-1-1.8,0.3-2.5l13.9-8c1.3-0.8,3.3-0.8,4.4-0.2l14,8.1c1.1,0.7,1,1.8-0.3,2.5
			l-13.9,8C758.9,602.7,756.9,602.8,755.8,602.1z"/>
		<path class="st10" d="M778,589.3l-14-8.1c-1.1-0.7-1-1.8,0.3-2.5l4.6-2.7c1.3-0.8,3.3-0.8,4.4-0.2l14,8.1c1.1,0.7,1,1.8-0.3,2.5
			l-4.6,2.7C781.1,589.9,779.1,589.9,778,589.3z"/>
		<path class="st10" d="M806.1,605.5l-14-8.1c-1.1-0.7-1-1.8,0.3-2.5l4.6-2.7c1.3-0.8,3.3-0.8,4.4-0.2l14,8.1c1.1,0.7,1,1.8-0.3,2.5
			l-4.6,2.7C809.2,606.1,807.3,606.2,806.1,605.5z"/>
		<path class="st10" d="M827.6,618l-14-8.1c-1.1-0.7-1-1.8,0.3-2.5l4.6-2.7c1.3-0.8,3.3-0.8,4.4-0.2l14,8.1c1.1,0.7,1,1.8-0.3,2.5
			l-4.6,2.7C830.7,618.5,828.8,618.6,827.6,618z"/>
		<path class="st10" d="M849.1,630.4l-14-8.1c-1.1-0.7-1-1.8,0.3-2.5l4.6-2.7c1.3-0.8,3.3-0.8,4.4-0.2l14,8.1c1.1,0.7,1,1.8-0.3,2.5
			l-4.6,2.7C852.2,630.9,850.2,631,849.1,630.4z"/>
		<path class="st10" d="M870.6,642.8l-14-8.1c-1.1-0.7-1-1.8,0.3-2.5l4.6-2.7c1.3-0.8,3.3-0.8,4.4-0.2l14,8.1c1.1,0.7,1,1.8-0.3,2.5
			l-4.6,2.7C873.7,643.3,871.7,643.4,870.6,642.8z"/>
		<path class="st10" d="M990.6,712l-14-8.1c-1.1-0.7-1-1.8,0.3-2.5l4.6-2.7c1.3-0.8,3.3-0.8,4.4-0.2l14,8.1c1.1,0.7,1,1.8-0.3,2.5
			l-4.6,2.7C993.7,712.6,991.7,712.7,990.6,712z"/>
		<path class="st10" d="M1012.1,724.4l-14-8.1c-1.1-0.7-1-1.8,0.3-2.5l4.6-2.7c1.3-0.8,3.3-0.8,4.4-0.2l14,8.1
			c1.1,0.7,1,1.8-0.3,2.5l-4.6,2.7C1015.2,725,1013.2,725.1,1012.1,724.4z"/>
		<path class="st10" d="M1033.6,736.8l-14-8.1c-1.1-0.7-1-1.8,0.3-2.5l4.6-2.7c1.3-0.8,3.3-0.8,4.4-0.2l14,8.1
			c1.1,0.7,1,1.8-0.3,2.5l-4.6,2.7C1036.7,737.4,1034.7,737.5,1033.6,736.8z"/>
		<path class="st10" d="M1055,749.3l-14-8.1c-1.1-0.7-1-1.8,0.3-2.5l4.6-2.7c1.3-0.8,3.3-0.8,4.4-0.2l14,8.1c1.1,0.7,1,1.8-0.3,2.5
			l-4.6,2.7C1058.1,749.8,1056.2,749.9,1055,749.3z"/>
		<path class="st10" d="M842.2,652l-14-8.1c-1.1-0.7-1-1.8,0.3-2.5l13.9-8c1.3-0.8,3.3-0.8,4.4-0.2l14,8.1c1.1,0.7,1,1.8-0.3,2.5
			l-13.9,8C845.3,652.6,843.3,652.7,842.2,652z"/>
		<path class="st10" d="M863.9,664.5l-14-8.1c-1.1-0.7-1-1.8,0.3-2.5l13.9-8c1.3-0.8,3.3-0.8,4.4-0.2l14,8.1c1.1,0.7,1,1.8-0.3,2.5
			l-13.9,8C867,665.1,865,665.2,863.9,664.5z"/>
		<path class="st10" d="M885.6,677l-14-8.1c-1.1-0.7-1-1.8,0.3-2.5l13.9-8c1.3-0.8,3.3-0.8,4.4-0.2l14,8.1c1.1,0.7,1,1.8-0.3,2.5
			l-13.9,8C888.7,677.6,886.7,677.7,885.6,677z"/>
		<path class="st10" d="M907.3,689.6l-14-8.1c-1.1-0.7-1-1.8,0.3-2.5l13.9-8c1.3-0.8,3.3-0.8,4.4-0.2l14,8.1c1.1,0.7,1,1.8-0.3,2.5
			l-13.9,8C910.4,690.1,908.4,690.2,907.3,689.6z"/>
		<path class="st10" d="M929,702.1l-14-8.1c-1.1-0.7-1-1.8,0.3-2.5l13.9-8c1.3-0.8,3.3-0.8,4.4-0.2l14,8.1c1.1,0.7,1,1.8-0.3,2.5
			l-13.9,8C932.1,702.7,930.1,702.7,929,702.1z"/>
		<path class="st10" d="M950.6,714.6l-14-8.1c-1.1-0.7-1-1.8,0.3-2.5l13.9-8c1.3-0.8,3.3-0.8,4.4-0.2l14,8.1c1.1,0.7,1,1.8-0.3,2.5
			l-13.9,8C953.7,715.2,951.8,715.3,950.6,714.6z"/>
		<path class="st10" d="M972.3,727.1l-14-8.1c-1.1-0.7-1-1.8,0.3-2.5l13.9-8c1.3-0.8,3.3-0.8,4.4-0.2l14,8.1c1.1,0.7,1,1.8-0.3,2.5
			l-13.9,8C975.4,727.7,973.5,727.8,972.3,727.1z"/>
		<path class="st10" d="M994,739.6l-14-8.1c-1.1-0.7-1-1.8,0.3-2.5l13.9-8c1.3-0.8,3.3-0.8,4.4-0.2l14,8.1c1.1,0.7,1,1.8-0.3,2.5
			l-13.9,8C997.1,740.2,995.1,740.3,994,739.6z"/>
		<path class="st10" d="M1015.7,752.2l-14-8.1c-1.1-0.7-1-1.8,0.3-2.5l13.9-8c1.3-0.8,3.3-0.8,4.4-0.2l14,8.1c1.1,0.7,1,1.8-0.3,2.5
			l-13.9,8C1018.8,752.7,1016.8,752.8,1015.7,752.2z"/>
		<path class="st10" d="M718.2,653.5l-41.4-23.9c-1.1-0.7-1-1.8,0.3-2.5l13.9-8c1.3-0.8,3.3-0.8,4.4-0.2l41.4,23.9
			c1.1,0.7,1,1.8-0.3,2.5l-13.9,8C721.3,654.1,719.3,654.2,718.2,653.5z"/>
		<path class="st10" d="M984.7,807.4l-41.4-23.9c-1.1-0.7-1-1.8,0.3-2.5l13.9-8c1.3-0.8,3.3-0.8,4.4-0.2l41.4,23.9
			c1.1,0.7,1,1.8-0.3,2.5l-13.9,8C987.8,807.9,985.8,808,984.7,807.4z"/>
		<path class="st10" d="M897.9,785l-14-8.1c-1.1-0.7-1-1.8,0.3-2.5l16.6-9.6c1.3-0.8,3.3-0.8,4.4-0.2l14,8.1c1.1,0.7,1,1.8-0.3,2.5
			l-16.6,9.6C901,785.5,899.1,785.6,897.9,785z"/>
		<path class="st10" d="M740.4,694l-22.5-13c-1.1-0.7-1-1.8,0.3-2.5l16.6-9.6c1.3-0.8,3.3-0.8,4.4-0.2l22.5,13
			c1.1,0.7,1,1.8-0.3,2.5l-16.6,9.6C743.5,694.6,741.6,694.7,740.4,694z"/>
		<path class="st10" d="M877,772.9l-22.5-13c-1.1-0.7-1-1.8,0.3-2.5l16.6-9.6c1.3-0.8,3.3-0.8,4.4-0.2l22.5,13
			c1.1,0.7,1,1.8-0.3,2.5l-16.6,9.6C880.1,773.5,878.2,773.5,877,772.9z"/>
		<path class="st10" d="M771.7,712.1l-22.5-13c-1.1-0.7-1-1.8,0.3-2.5l16.6-9.6c1.3-0.8,3.3-0.8,4.4-0.2l22.5,13
			c1.1,0.7,1,1.8-0.3,2.5l-16.6,9.6C774.8,712.7,772.8,712.7,771.7,712.1z"/>
		<path class="st10" d="M770.7,686.9l97.6,56.4c1.2,0.7,1.2,1.8,0,2.5l-16.9,9.8c-1.2,0.7-3.2,0.7-4.4,0l-97.6-56.4L770.7,686.9z"/>
		<path class="st10" d="M958.5,807.7l15.6,9c0.9,0.5,0.8,1.5-0.3,2.1l-6.8,3.9c-1.1,0.6-2.7,0.7-3.6,0.1l-15.6-9
			c-0.9-0.5-0.8-1.5,0.3-2.1l6.8-3.9C956,807.2,957.6,807.1,958.5,807.7z"/>
		<path class="st10" d="M936.7,795l15.6,9c0.9,0.5,0.8,1.5-0.3,2.1l-6.8,3.9c-1.1,0.6-2.7,0.7-3.6,0.1l-15.6-9
			c-0.9-0.5-0.8-1.5,0.3-2.1l6.8-3.9C934.1,794.6,935.7,794.5,936.7,795z"/>
		<path class="st10" d="M915,782.5l15.6,9c0.9,0.5,0.8,1.5-0.3,2.1l-6.8,3.9c-1.1,0.6-2.7,0.7-3.6,0.1l-15.6-9
			c-0.9-0.5-0.8-1.5,0.3-2.1l6.8-3.9C912.4,782,914.1,782,915,782.5z"/>
		<path class="st10" d="M948.6,788.1l15.6,9c0.9,0.5,0.8,1.5-0.3,2.1l-6.8,3.9c-1.1,0.6-2.7,0.7-3.6,0.1l-15.6-9
			c-0.9-0.5-0.8-1.5,0.3-2.1l6.8-3.9C946.1,787.7,947.7,787.6,948.6,788.1z"/>
	</g>
	
		<radialGradient id="SVGID_8_" cx="692.8779" cy="596.1847" r="223.3409" gradientTransform="matrix(2.88 0 0 2.88 -1301.76 -1408.3199)" gradientUnits="userSpaceOnUse">
		<stop  offset="0" style="stop-color:#E39A65"/>
		<stop  offset="0.4742" style="stop-color:#A92FFB"/>
		<stop  offset="0.5875" style="stop-color:#891CFB"/>
		<stop  offset="0.7262" style="stop-color:#6507FA"/>
		<stop  offset="1" style="stop-color:#3919BB"/>
	</radialGradient>
	<path class="st11" d="M1178.2,762.8L763.8,523.6c-6.5-3.8-9.9-12.9-7.6-20.5l93.7-304.2c2.3-7.5,9.5-10.6,16-6.8l414.3,239.2
		c6.5,3.8,9.9,12.9,7.6,20.5l-93.7,304.2C1191.8,763.5,1184.7,766.5,1178.2,762.8z"/>
	<linearGradient id="SVGID_9_" gradientUnits="userSpaceOnUse" x1="764.4258" y1="477.5389" x2="1279.8489" y2="477.5389">
		<stop  offset="0" style="stop-color:#3919BB"/>
		<stop  offset="1" style="stop-color:#6507FA"/>
	</linearGradient>
	<path class="st12" d="M1174.3,752.1L772.4,519.9c-6.2-3.6-9.5-12.4-7.3-19.6l89.6-290.8c2.2-7.2,9.1-10.2,15.3-6.6l401.9,232.2
		c6.2,3.6,9.5,12.4,7.3,19.6l-89.6,290.8C1187.4,752.8,1180.5,755.7,1174.3,752.1z"/>
	<path class="st13" d="M1174.3,752.1L772.4,519.9c-6.2-3.6-9.5-12.4-7.3-19.6l89.6-290.8c2.2-7.2,9.1-10.2,15.3-6.6l401.9,232.2
		c6.2,3.6,9.5,12.4,7.3,19.6l-89.6,290.8C1187.4,752.8,1180.5,755.7,1174.3,752.1z"/>
	<path class="st13" d="M1174.3,752.1L772.4,519.9c-6.2-3.6-9.5-12.4-7.3-19.6l89.6-290.8c2.2-7.2,9.1-10.2,15.3-6.6l401.9,232.2
		c6.2,3.6,9.5,12.4,7.3,19.6l-89.6,290.8C1187.4,752.8,1180.5,755.7,1174.3,752.1z"/>
	<path class="st14" d="M1152.7,663.3l-272-157.1c-4.3-2.5-6.5-8.5-5-13.4L937.2,293c1.5-5,6.2-7,10.5-4.5l272,157.1
		c4.3,2.5,6.5,8.5,5,13.4l-61.5,199.8C1161.7,663.7,1156.9,665.7,1152.7,663.3z"/>
	<g>
		
			<radialGradient id="SVGID_10_" cx="611.3463" cy="548.4914" r="347.8475" gradientTransform="matrix(2.88 0 0 2.88 -1301.76 -1408.3199)" gradientUnits="userSpaceOnUse">
			<stop  offset="0" style="stop-color:#E39A65"/>
			<stop  offset="0.4742" style="stop-color:#A92FFB"/>
			<stop  offset="0.5875" style="stop-color:#891CFB"/>
			<stop  offset="0.7262" style="stop-color:#6507FA"/>
			<stop  offset="1" style="stop-color:#3919BB"/>
		</radialGradient>
		<path class="st15" d="M1115.9,668.1L843.9,511c-4.3-2.5-6.5-8.5-5-13.4l61.5-199.8c1.5-5,6.2-7,10.5-4.5l272,157.1
			c4.3,2.5,6.5,8.5,5,13.4l-61.5,199.8C1124.9,668.5,1120.2,670.5,1115.9,668.1z"/>
	</g>
	<g class="st16">
		<path class="st10" d="M1115.9,668.1L843.9,511c-4.3-2.5-6.5-8.5-5-13.4l61.5-199.8c1.5-5,6.2-7,10.5-4.5l272,157.1
			c4.3,2.5,6.5,8.5,5,13.4l-61.5,199.8C1124.9,668.5,1120.2,670.5,1115.9,668.1z"/>
	</g>
	<path class="st8" d="M1183,450.4l-272-157.1c-2.7-1.5-5.5-1.3-7.7,0.3c1.3,0,2.6,0.3,3.9,1l272,157.1c4.3,2.5,6.5,8.5,5,13.4
		l-61.5,199.8c-0.6,1.8-1.6,3.3-2.9,4.2c2.9-0.1,5.5-2.1,6.6-5.5l61.5-199.8C1189.5,458.9,1187.2,452.9,1183,450.4z"/>
	<path class="st13" d="M772.8,831.2c-3.7,0-7.3-0.8-10.1-2.4v0l-109-62.9c-2.9-1.7-4.5-4.1-4.5-6.7c0-3.1,2.2-6.1,6-8.3l56.1-32.4
		c6.9-4,16.9-4.3,22.9-0.9l109,62.9c2.9,1.7,4.5,4.1,4.5,6.7c0,3.1-2.2,6.1-6,8.3l-56.1,32.4C781.9,830.1,777.2,831.2,772.8,831.2z
		 M724.3,718.4c-3.9,0-8.1,0.9-11.3,2.8l-56.1,32.4c-2.8,1.6-4.4,3.7-4.4,5.6c0,1.9,1.6,3.2,2.9,4l109,62.9c4.9,2.8,14,2.4,19.8-0.9
		l56.1-32.4c2.8-1.6,4.4-3.7,4.4-5.6c0-1.9-1.6-3.2-2.9-4l-109-62.9C730.5,719,727.5,718.4,724.3,718.4z"/>
</g>
<g>
	<g>
		<path class="st8" d="M977.2,398.1l-16.8-9.7c-1.6-0.9-2.4-3.1-1.9-4.8l0,0c0.5-1.8,2.2-2.5,3.8-1.6l16.8,9.7
			c1.6,0.9,2.4,3.1,1.9,4.8l0,0C980.4,398.3,978.7,399,977.2,398.1z"/>
		<path class="st8" d="M1017.2,421.2l-24.8-14.3c-1.6-0.9-2.4-3.1-1.9-4.8l0,0c0.5-1.8,2.2-2.5,3.8-1.6l24.8,14.3
			c1.6,0.9,2.4,3.1,1.9,4.8l0,0C1020.5,421.4,1018.8,422.1,1017.2,421.2z"/>
		<path class="st8" d="M943.3,473l-16.8-9.7c-1.6-0.9-2.4-3.1-1.9-4.8l0,0c0.5-1.8,2.2-2.5,3.8-1.6l16.8,9.7
			c1.6,0.9,2.4,3.1,1.9,4.8l0,0C946.5,473.2,944.8,473.9,943.3,473z"/>
		<path class="st8" d="M979,493.6l-24.8-14.3c-1.6-0.9-2.4-3.1-1.9-4.8l0,0c0.5-1.8,2.2-2.5,3.8-1.6l24.8,14.3
			c1.6,0.9,2.4,3.1,1.9,4.8l0,0C982.2,493.8,980.5,494.5,979,493.6z"/>
		<path class="st8" d="M926.8,384.8l-10.5-6.1c-1.6-0.9-2.4-3.1-1.9-4.8l0,0c0.5-1.8,2.2-2.5,3.8-1.6l10.5,6.1
			c1.6,0.9,2.4,3.1,1.9,4.8l0,0C930,385,928.4,385.7,926.8,384.8z"/>
		<path class="st8" d="M958.4,418.8l-32.1-18.5c-1.6-0.9-2.4-3.1-1.9-4.8l0,0c0.5-1.8,2.2-2.5,3.8-1.6l32.1,18.5
			c1.6,0.9,2.4,3.1,1.9,4.8l0,0C961.7,419,960,419.7,958.4,418.8z"/>
		<path class="st8" d="M928.8,433.2l-10.5-6.1c-1.6-0.9-2.4-3.1-1.9-4.8l0,0c0.5-1.8,2.2-2.5,3.8-1.6l10.5,6.1
			c1.6,0.9,2.4,3.1,1.9,4.8h0C932,433.4,930.4,434.1,928.8,433.2z"/>
		<path class="st8" d="M982.8,527.3l-28.1-16.2c-1.6-0.9-2.4-3.1-1.9-4.8l0,0c0.5-1.8,2.2-2.5,3.8-1.6l28.1,16.2
			c1.6,0.9,2.4,3.1,1.9,4.8l0,0C986.1,527.5,984.4,528.2,982.8,527.3z"/>
		<path class="st8" d="M917,457.9l-6.7-3.9c-1.6-0.9-2.4-3.1-1.9-4.8l0,0c0.5-1.8,2.2-2.5,3.8-1.6l6.7,3.9c1.6,0.9,2.4,3.1,1.9,4.8
			l0,0C920.3,458,918.6,458.8,917,457.9z"/>
		<path class="st8" d="M910.6,485.7l-8.4-4.8c-1.6-0.9-2.4-3.1-1.9-4.8v0c0.5-1.8,2.2-2.5,3.8-1.6l8.4,4.8c1.6,0.9,2.4,3.1,1.9,4.8
			l0,0C913.9,485.9,912.2,486.6,910.6,485.7z"/>
		<path class="st8" d="M943.2,504.5l-22.1-12.7c-1.6-0.9-2.4-3.1-1.9-4.8l0,0c0.5-1.8,2.2-2.5,3.8-1.6l22.1,12.7
			c1.6,0.9,2.4,3.1,1.9,4.8l0,0C946.5,504.7,944.8,505.4,943.2,504.5z"/>
		<path class="st8" d="M914.1,503.4l-15.9-9.2c-1.6-0.9-2.4-3.1-1.9-4.8l0,0c0.5-1.8,2.2-2.5,3.8-1.6L916,497
			c1.6,0.9,2.4,3.1,1.9,4.8l0,0C917.4,503.6,915.7,504.3,914.1,503.4z"/>
		<path class="st8" d="M1006.9,541.3l-10.2-5.9c-1.6-0.9-2.4-3.1-1.9-4.8l0,0c0.5-1.8,2.2-2.5,3.8-1.6l10.2,5.9
			c1.6,0.9,2.4,3.1,1.9,4.8l0,0C1010.2,541.5,1008.5,542.2,1006.9,541.3z"/>
		<path class="st8" d="M967.9,455.7l-28.1-16.2c-1.6-0.9-2.4-3.1-1.9-4.8l0,0c0.5-1.8,2.2-2.5,3.8-1.6l28.1,16.2
			c1.6,0.9,2.4,3.1,1.9,4.8l0,0C971.1,455.9,969.4,456.6,967.9,455.7z"/>
	</g>
	<path class="st17" d="M971.2,441.9l-48.9-28.2c-1.6-0.9-2.4-3.1-1.9-4.8l0,0c0.5-1.8,2.2-2.5,3.8-1.6l48.9,28.2
		c1.6,0.9,2.4,3.1,1.9,4.8l0,0C974.5,442.1,972.8,442.8,971.2,441.9z"/>
	<path class="st17" d="M942.3,456.7l-28.1-16.2c-1.6-0.9-2.4-3.1-1.9-4.8l0,0c0.5-1.8,2.2-2.5,3.8-1.6l28.1,16.2
		c1.6,0.9,2.4,3.1,1.9,4.8l0,0C945.6,456.9,943.9,457.6,942.3,456.7z"/>
	<path class="st17" d="M989.2,468l-10.2-5.9c-1.6-0.9-2.4-3.1-1.9-4.8l0,0c0.5-1.8,2.2-2.5,3.8-1.6l10.2,5.9
		c1.6,0.9,2.4,3.1,1.9,4.8l0,0C992.4,468.2,990.7,468.9,989.2,468z"/>
	<path class="st17" d="M1092.9,464.9l-60.4-34.9c-1.6-0.9-2.4-3.1-1.9-4.8l0,0c0.5-1.8,2.2-2.5,3.8-1.6l60.4,34.9
		c1.6,0.9,2.4,3.1,1.9,4.8l0,0C1096.1,465.1,1094.4,465.8,1092.9,464.9z"/>
	<path class="st18" d="M940,486.9l-33.7-19.5c-1.6-0.9-2.4-3.1-1.9-4.8l0,0c0.5-1.8,2.2-2.5,3.8-1.6l33.7,19.5
		c1.6,0.9,2.4,3.1,1.9,4.8l0,0C943.3,487.1,941.6,487.8,940,486.9z"/>
	<path class="st18" d="M945.1,379.6l-24.8-14.3c-1.6-0.9-2.4-3.1-1.9-4.8l0,0c0.5-1.8,2.2-2.5,3.8-1.6l24.8,14.3
		c1.6,0.9,2.4,3.1,1.9,4.8l0,0C948.3,379.8,946.6,380.5,945.1,379.6z"/>
	<path class="st17" d="M908.9,516.2l-28.7-16.6c-1.6-0.9-2.4-3.1-1.9-4.8l0,0c0.5-1.8,2.2-2.5,3.8-1.6l28.7,16.6
		c1.6,0.9,2.4,3.1,1.9,4.8l0,0C912.2,516.4,910.5,517.1,908.9,516.2z"/>
</g>
<g>
	<path class="st8" d="M1099.7,433.9l-12.3-7.1c-1.1-0.7-1.8-2.2-1.4-3.5l0,0c0.4-1.3,1.6-1.8,2.8-1.2l12.3,7.1
		c1.1,0.7,1.8,2.2,1.4,3.5l0,0C1102,434,1100.8,434.5,1099.7,433.9z"/>
	<path class="st8" d="M1123.1,447.4l-12.3-7.1c-1.1-0.7-1.8-2.2-1.4-3.5l0,0c0.4-1.3,1.6-1.8,2.8-1.2l12.3,7.1
		c1.1,0.7,1.8,2.2,1.4,3.5l0,0C1125.5,447.5,1124.2,448.1,1123.1,447.4z"/>
	<path class="st8" d="M1146.6,460.9l-12.3-7.1c-1.1-0.7-1.8-2.2-1.4-3.5l0,0c0.4-1.3,1.6-1.8,2.8-1.2l12.3,7.1
		c1.1,0.7,1.8,2.2,1.4,3.5l0,0C1148.9,461.1,1147.7,461.6,1146.6,460.9z"/>
	<path class="st18" d="M1158.1,467.6l-0.4-0.2c-1.1-0.7-1.8-2.2-1.4-3.5l0,0c0.4-1.3,1.6-1.8,2.8-1.2l0.4,0.2
		c1.1,0.7,1.8,2.2,1.4,3.5l0,0C1160.5,467.8,1159.2,468.3,1158.1,467.6z"/>
</g>
<linearGradient id="SVGID_11_" gradientUnits="userSpaceOnUse" x1="413.0197" y1="548.0454" x2="634.1328" y2="548.0454">
	<stop  offset="0" style="stop-color:#E39A65"/>
	<stop  offset="1" style="stop-color:#E95F8D"/>
</linearGradient>
<path class="st19" d="M523.6,611.5c-7.8,0-15.6-2-22.5-6l0,0l-82.4-47.5c-3.6-2.1-5.7-5.8-5.7-9.9c0-4.1,2.1-7.8,5.7-9.9l82.3-47.5
	c13.9-8,31.1-8,45,0l82.4,47.5c3.6,2.1,5.7,5.8,5.7,9.9c0,4.1-2.1,7.8-5.7,9.9l-82.3,47.5C539.1,609.5,531.4,611.5,523.6,611.5z
	 M503.8,600.8c12.2,7.1,27.4,7.1,39.6,0l82.3-47.5c1.9-1.1,3-3,3-5.2c0-2.2-1.1-4.1-3-5.2l-82.4-47.5c-12.2-7.1-27.4-7.1-39.6,0
	l-82.4,47.5c-1.9,1.1-3,3-3,5.2c0,2.2,1.1,4.1,3,5.2L503.8,600.8z"/>
<g>
	<path class="st3" d="M563.2,572.3c-22.1,12.8-57.9,12.8-80,0c-22.1-12.8-22.1-33.4,0-46.2c22.1-12.8,57.9-12.8,80,0
		C585.2,538.8,585.2,559.5,563.2,572.3z"/>
	
		<radialGradient id="SVGID_12_" cx="602.2162" cy="616.668" r="165.349" gradientTransform="matrix(2.88 0 0 2.88 -1301.76 -1408.3199)" gradientUnits="userSpaceOnUse">
		<stop  offset="0" style="stop-color:#E39A65"/>
		<stop  offset="0.1528" style="stop-color:#A92FFB"/>
		<stop  offset="0.4087" style="stop-color:#3919BB"/>
		<stop  offset="0.9311" style="stop-color:#3919BB"/>
	</radialGradient>
	<path class="st20" d="M607,316.4H445.9l15,174.4l0,0c0,9.7,6.4,19.4,19.2,26.8c25.6,14.8,67.1,14.8,92.7,0
		c12.8-7.4,19.2-17.1,19.2-26.8L607,316.4z"/>
	<path class="st13" d="M607,316.4H445.9l2.5,28.7c3.7,4.7,8.7,9.3,14.9,13.4c30.8,20.4,81.6,24.4,116.2,9.7l-5.4,127.6
		c-0.2,5.6-2.2,11-5.8,15.2c-5.2,6.1-15.3,13.4-34.6,17.5c14.2-0.9,28.1-4.5,39-10.8c12.8-7.4,19.2-17.1,19.2-26.8l12-139.9l0,0
		L607,316.4z"/>
	<path class="st13" d="M583.4,349.3c-31.5,18.2-82.5,18.2-113.9,0c-31.5-18.2-31.5-47.6,0-65.8c31.5-18.2,82.5-18.2,113.9,0
		C614.9,301.7,614.9,331.1,583.4,349.3z"/>
	<path class="st13" d="M575.5,328.3c-27.1,15.6-71,15.6-98.1,0c-27.1-15.6-27.1-41,0-56.7c27.1-15.6,71-15.6,98.1,0
		C602.6,287.3,602.6,312.7,575.5,328.3z"/>
	<linearGradient id="SVGID_13_" gradientUnits="userSpaceOnUse" x1="441.0506" y1="308.6917" x2="611.8617" y2="308.6917">
		<stop  offset="0" style="stop-color:#E39A65"/>
		<stop  offset="0.252" style="stop-color:#A92FFB"/>
		<stop  offset="0.5556" style="stop-color:#3919BB"/>
	</linearGradient>
	<path class="st21" d="M611.8,314.2L611.8,314.2l0-0.1c0-0.1,0-0.2,0-0.2l-1.5-15.6l-0.1,0.2c-0.7-11.8-8.8-23.5-24.5-32.5
		c-32.7-18.9-85.7-18.9-118.4,0c-16,9.3-24.2,21.3-24.5,33.4l0,0l-1.5,13.9c0,0.4-0.1,0.7-0.1,1.1l0,0.2l0,0
		c-0.9,13.2,7.4,26.7,24.9,36.8c33.4,19.3,87.4,19.3,120.8,0C604.5,341.1,612.8,327.5,611.8,314.2z"/>
	<linearGradient id="SVGID_14_" gradientUnits="userSpaceOnUse" x1="457.067" y1="300.0125" x2="595.8376" y2="300.0125">
		<stop  offset="0" style="stop-color:#4F1FEC"/>
		<stop  offset="1" style="stop-color:#A92FFB"/>
	</linearGradient>
	<path class="st22" d="M575.5,328.3c-27.1,15.6-71,15.6-98.1,0c-27.1-15.6-27.1-41,0-56.7c27.1-15.6,71-15.6,98.1,0
		C602.6,287.3,602.6,312.7,575.5,328.3z"/>
	<linearGradient id="SVGID_15_" gradientUnits="userSpaceOnUse" x1="453.7746" y1="300.0125" x2="592.5453" y2="300.0125">
		<stop  offset="0" style="stop-color:#4F1FEC"/>
		<stop  offset="1" style="stop-color:#A92FFB"/>
	</linearGradient>
	<path class="st23" d="M572.2,328.3c-27.1,15.6-71,15.6-98.1,0c-27.1-15.6-27.1-41,0-56.7c27.1-15.6,71-15.6,98.1,0
		C599.3,287.3,599.3,312.7,572.2,328.3z"/>
	<path class="st13" d="M485.6,277.7c27.1-15.6,71-15.6,98.1,0c0.3,0.2,0.6,0.4,1,0.6c-2.6-2.3-5.7-4.5-9.2-6.6
		c-27.1-15.6-71-15.6-98.1,0c-26.8,15.4-27,40.3-1,56C459,312.2,462.1,291.3,485.6,277.7z"/>
	<linearGradient id="SVGID_16_" gradientUnits="userSpaceOnUse" x1="457.0784" y1="281.7215" x2="632.0447" y2="281.7215">
		<stop  offset="0" style="stop-color:#131060"/>
		<stop  offset="0.1857" style="stop-color:#141062"/>
		<stop  offset="0.2823" style="stop-color:#19106A"/>
		<stop  offset="0.3584" style="stop-color:#221078"/>
		<stop  offset="0.4238" style="stop-color:#2E0F8B"/>
		<stop  offset="0.4823" style="stop-color:#3E0FA3"/>
		<stop  offset="0.5359" style="stop-color:#510EC2"/>
		<stop  offset="0.5847" style="stop-color:#680DE5"/>
		<stop  offset="0.6071" style="stop-color:#740DF8"/>
		<stop  offset="0.6179" style="stop-color:#7A14F0"/>
		<stop  offset="0.6826" style="stop-color:#9B3CC3"/>
		<stop  offset="0.7477" style="stop-color:#B75D9D"/>
		<stop  offset="0.8123" style="stop-color:#CC7680"/>
		<stop  offset="0.8762" style="stop-color:#DC886C"/>
		<stop  offset="0.9391" style="stop-color:#E5935F"/>
		<stop  offset="1" style="stop-color:#E8975B"/>
	</linearGradient>
	<path class="st24" d="M477.4,278.6c27.1-15.6,71-15.6,98.1,0c12,6.9,18.7,15.8,20.1,24.9c1.7-11.4-5-23.1-20.1-31.8
		c-27.1-15.6-71-15.6-98.1,0c-15.1,8.7-21.8,20.4-20,31.8C458.7,294.4,465.4,285.6,477.4,278.6z"/>
	
		<radialGradient id="SVGID_17_" cx="597.7399" cy="579.4045" r="108.1645" gradientTransform="matrix(2.88 0 0 2.88 -1301.76 -1408.3199)" gradientUnits="userSpaceOnUse">
		<stop  offset="0" style="stop-color:#E39A65"/>
		<stop  offset="0.252" style="stop-color:#A92FFB"/>
		<stop  offset="0.7357" style="stop-color:#3919BB"/>
	</radialGradient>
	<path class="st25" d="M586.2,266.2c-32.7-19.2-85.9-19.7-118.9-1s-33.3,49.4-0.6,68.6c32.7,19.2,85.9,19.7,118.9,1
		C618.6,316.2,618.9,285.5,586.2,266.2z M575.5,328.3c-9.1,5.2-20,8.7-31.6,10.4l-1.3-4.1c-0.5-1.7-2-2.8-3.8-2.8H514
		c-1.7,0-3.3,1.1-3.8,2.8l-1.3,4.1c-11.6-1.7-22.5-5.2-31.5-10.4c-27.1-15.6-27.1-41,0-56.7c27.1-15.6,71-15.6,98.1,0
		C602.6,287.3,602.6,312.7,575.5,328.3z"/>
	<g>
		<path class="st8" d="M575.5,268.7c-27.1-15.6-71-15.6-98.1,0c-14.2,8.2-20.9,19.1-20.3,29.8c0.6-9.8,7.4-19.4,20.3-26.8
			c27.1-15.6,71-15.6,98.1,0c12.9,7.4,19.6,17.1,20.3,26.8C596.5,287.8,589.7,276.9,575.5,268.7z"/>
		<path class="st8" d="M585.6,331.9c-33,18.7-86.2,18.2-118.9-1c-15.5-9.2-23.6-20.9-24.3-32.7c-0.6,12.8,7.4,25.8,24.3,35.7
			c32.7,19.2,85.9,19.7,118.9,1c17.3-9.8,25.6-22.9,24.9-35.9C609.8,311,601.6,322.8,585.6,331.9z"/>
	</g>
	<path class="st26" d="M535.1,340.9h-17.3c-0.4,0-0.7-0.3-0.7-0.7v-2.7c0-0.4,0.3-0.7,0.7-0.7h17.3c0.4,0,0.7,0.3,0.7,0.7v2.7
		C535.8,340.6,535.5,340.9,535.1,340.9z"/>
	<linearGradient id="SVGID_18_" gradientUnits="userSpaceOnUse" x1="515.47" y1="338.1902" x2="539.6754" y2="338.1902">
		<stop  offset="0" style="stop-color:#131060"/>
		<stop  offset="0.1857" style="stop-color:#141062"/>
		<stop  offset="0.2823" style="stop-color:#19106A"/>
		<stop  offset="0.3584" style="stop-color:#221078"/>
		<stop  offset="0.4238" style="stop-color:#2E0F8B"/>
		<stop  offset="0.4823" style="stop-color:#3E0FA3"/>
		<stop  offset="0.5359" style="stop-color:#510EC2"/>
		<stop  offset="0.5847" style="stop-color:#680DE5"/>
		<stop  offset="0.6071" style="stop-color:#740DF8"/>
		<stop  offset="0.6179" style="stop-color:#7A14F0"/>
		<stop  offset="0.6826" style="stop-color:#9B3CC3"/>
		<stop  offset="0.7477" style="stop-color:#B75D9D"/>
		<stop  offset="0.8123" style="stop-color:#CC7680"/>
		<stop  offset="0.8762" style="stop-color:#DC886C"/>
		<stop  offset="0.9391" style="stop-color:#E5935F"/>
		<stop  offset="1" style="stop-color:#E8975B"/>
	</linearGradient>
	<path class="st27" d="M533.9,336.9H519c-1,0-1.9,0.8-1.9,1.9v0.3c0,0.2,0.1,0.3,0.1,0.5c0.2-0.8,0.9-1.4,1.8-1.4h14.9
		c0.9,0,1.6,0.6,1.8,1.4c0-0.2,0.1-0.3,0.1-0.5v-0.3C535.8,337.7,534.9,336.9,533.9,336.9z"/>
	<g>
		<path class="st17" d="M528.7,472.9c-1.8,6.9-8.9,11-15.7,9.1c-6.9-1.8-11-8.9-9.1-15.7c1.8-6.9,8.3-8.8,15.2-7
			C525.9,461.1,530.6,466.1,528.7,472.9z"/>
		<path class="st17" d="M538.9,459.4c-2.6,2.5-5.9,2.2-8.1,0c-2.2-2.3-2.5-5.6,0.1-8.1c2.6-2.5,7.5-3.8,9.7-1.5
			C542.8,451.9,541.5,456.8,538.9,459.4z"/>
		<path class="st17" d="M525.4,448.6c-0.6,3.6-3.5,5.2-6.6,4.7c-3.1-0.6-5.2-3.1-4.6-6.7c0.6-3.6,3.9-7.4,7-6.9
			C524.3,440.3,526,445,525.4,448.6z"/>
		<path class="st17" d="M508.8,447c1.4,3.4-0.2,6.3-3.1,7.5c-2.9,1.2-6.1,0.2-7.5-3.2c-1.4-3.4-0.7-8.4,2.2-9.6
			C503.4,440.5,507.4,443.6,508.8,447z"/>
	</g>
</g>
<path class="st28" d="M531.7,338.9c0,0,45-15.1,26.8-66.9s-53.7-67.5-39.4-108.9c0,0-22.4,33.5-1.5,78.9
	c20.9,45.3,25.5,40.1,25.3,61.8c-0.3,25.8-21.1,35.1-21.1,35.1H531.7z"/>
<path class="st28" d="M535.8,170.3c0,0-4.7-31,24.4-62.2c0,0-25.7,57.4-17.3,85.7C542.9,193.8,536.1,175.8,535.8,170.3z"/>
</svg>
